<?xml version="1.0" encoding="UTF-8"?>
<svg id="_Слой_1" data-name="Слой 1" xmlns="http://www.w3.org/2000/svg" xmlns:xlink="http://www.w3.org/1999/xlink" viewBox="0 0 1500 1500">
  <defs>
    <style>
      .cls-1 {
        fill: url(#linear-gradient-2);
      }

      .cls-2 {
        fill: url(#linear-gradient-3);
      }

      .cls-3 {
        fill: url(#linear-gradient);
      }
    </style>
    <linearGradient id="linear-gradient" x1="598.8" y1="622.75" x2="850.8" y2="622.75" gradientUnits="userSpaceOnUse">
      <stop offset="0" stop-color="#e7b728"/>
      <stop offset="1" stop-color="#ffe16b"/>
    </linearGradient>
    <linearGradient id="linear-gradient-2" x1="405.22" y1="620.34" x2="1059.8" y2="620.34" xlink:href="#linear-gradient"/>
    <linearGradient id="linear-gradient-3" x1="475.92" y1="624.11" x2="979.72" y2="624.11" xlink:href="#linear-gradient"/>
  </defs>
  <path class="cls-3" d="m850.8,622.63c0,30.72-10.15,57.15-30.99,80.44-.96,1.07-2.65,1.07-3.64.03l-42.34-45.19c-1.86-1.99-4.49-3.13-7.22-3.13h-74.7c-1.73,0-2.64,2.05-1.46,3.31l70.27,74.99,2.24,2.39.16.17c.01.07.01.16.01.24,0,.82-.36,1.56-.93,2.08-.85.24-1.68.48-2.51.71h-.01c-12.01,3.23-23.12,4.88-33.15,4.88-35.97,0-65.6-11.47-90.58-35.04-25.01-23.61-37.16-51.58-37.16-85.48s11.9-62.04,36.37-85.82c24.38-23.71,53.1-35.23,87.81-35.23,36.67,0,66.5,11.36,91.14,34.69,24.69,23.37,36.69,51.51,36.69,85.98Z"/>
  <path class="cls-1" d="m1056.5,441.08l-319.83-173.06c-1.47-.79-3.24-.8-4.72-.02l-324.56,171.56c-1.34.71-2.17,2.09-2.17,3.59v345.94c0,1.75.95,3.36,2.49,4.21l323.92,179.27c1.67.92,3.7.93,5.38.02l320.06-174.77c1.68-.92,2.73-2.68,2.73-4.59l-.46-347.42c0-1.97-1.09-3.79-2.84-4.73Zm-330.4,488.96l-277.16-153.46c-1.55-.86-2.52-2.47-2.54-4.23l-3.47-301.3c-.02-2.09,1.13-4.03,2.99-5.01l280.68-148.58c1.3-.69,2.86-.68,4.15.02l277.32,150.28c1.77.96,2.87,2.79,2.88,4.78l1.74,303.02c.01,1.83-.99,3.51-2.61,4.38l-278.79,150.14c-1.62.87-3.58.86-5.19-.03Z"/>
  <path class="cls-2" d="m974.93,763.67l-64.72,34.82c-1.79.97-4.02.6-5.4-.9l-38.53-41.69c-1.75-1.9-1.75-4.83.04-6.69,33.87-35.29,51.03-78.91,51.03-129.86s-19.03-92.01-56.58-127.41c-37.55-35.41-83.05-53.35-135.18-53.35s-98.95,18.05-136.51,53.64c-37.53,35.55-56.55,78.86-56.55,128.7s18.79,95.99,55.86,132.24c37.19,36.34,83.07,54.78,136.38,54.78,25.91,0,53.3-5.88,81.56-17.49,3.3-1.35,7.09-.53,9.54,2.04l32.04,33.65c1.86,1.95,1.35,5.12-1.03,6.4l-113.39,61c-3.06,1.64-6.75,1.62-9.78-.06l-240.09-132.82c-2.86-1.58-4.64-4.56-4.68-7.8l-3.02-261.25c-.04-3.22,1.74-6.18,4.6-7.7l245.69-129.94c1.49-.79,3.27-.78,4.75.02l242.48,131.28c2.92,1.58,4.75,4.62,4.77,7.92l1.51,262.42c.02,3.35-1.82,6.43-4.79,8.03Z"/>
  <g>
    <path d="m502.05,1127.58l16.27,17.29h-18.49l-9.09-9.52c-9.84,4.49-19.19,6.73-28.04,6.73-15.92,0-29.44-5.33-40.56-16-11.12-10.67-16.67-23.59-16.67-38.77s5.62-27.2,16.86-37.65c11.24-10.45,24.78-15.68,40.63-15.68s28.99,5.2,40.22,15.6c11.24,10.4,16.85,22.82,16.85,37.25,0,16.34-5.99,29.93-17.98,40.75Zm-21.96-3.4l-22.76-23.85h18.49l15.97,16.73c8.78-8.23,13.18-17.98,13.18-29.24s-4.1-20.62-12.3-28.24c-8.2-7.62-18.38-11.43-30.53-11.43s-21.4,3.87-29.52,11.62c-8.12,7.75-12.17,17.14-12.17,28.17s4.15,20.4,12.45,28.09c8.3,7.69,18.42,11.54,30.35,11.54,4.99,0,10.6-1.13,16.84-3.4Z"/>
    <path d="m538.02,1037.32h14.17v62.38c0,9.24,2.27,16.38,6.8,21.43,4.53,5.05,10.95,7.57,19.26,7.57s14.67-2.32,19.26-6.97c4.59-4.65,6.88-11.19,6.88-19.64v-64.77h14.17v63.81c0,12.43-3.62,22.36-10.87,29.79-7.25,7.44-16.89,11.15-28.95,11.15s-22.19-3.77-29.6-11.31c-7.41-7.54-11.11-18.67-11.11-33.38v-60.07Z"/>
    <path d="m677.95,1033.25l48.98,105.4h-14.85l-12.04-25.97h-44.02l-11.9,25.97h-14.74l48.57-105.4Zm-.04,31.68l-16.59,36.2h33.37l-16.77-36.2Z"/>
    <path d="m739.14,1033.09l76.7,77.14v-73.07h14.17v106.19l-76.7-76.79v72.09h-14.17v-105.55Z"/>
    <path d="m844.83,1037.16h63.43v13.86h-24.75v87.63h-14v-87.63h-24.67v-13.86Z"/>
    <path d="m923.07,1037.16h57.48v13.86h-43.48v25.33h43.48v13.7h-43.48v34.89h43.48v13.7h-57.48v-101.49Z"/>
    <path d="m993.26,1037.16h15.6l23.19,37.01,22.92-37.01h15.81l-30.82,49.77,31.72,51.72h-15.7l-23.9-38.99-24.15,38.99h-15.81l32.06-51.77-30.92-49.72Z"/>
  </g>
  <g>
    <path d="m405.55,1199.79h3.64l6.94,17.15h.14l7.12-17.15h3.64l-13.83,32.57h-3.62l4.77-11.14-8.81-21.43Z"/>
    <path d="m442.18,1221.66l-4.25-10.47c-.9-2.19-1.83-4.54-2.78-7.04h-.21c.11,1.83.17,4.15.17,6.97v10.54h-3.64v-21.87h5.16l4.01,9.94c.96,2.35,1.8,4.54,2.52,6.58h.17c.77-2.1,1.61-4.3,2.52-6.58l4.03-9.94h5.16v21.87h-3.64v-10.54c0-2.52.05-4.84.17-6.97h-.21c-.66,1.75-1.58,4.1-2.78,7.04l-4.25,10.47h-2.12Z"/>
    <path d="m476.92,1221.66v-9.78h-11.26v9.78h-3.64v-21.87h3.64v9.02h11.26v-9.02h3.64v21.87h-3.64Z"/>
    <path d="m491.26,1199.79v8.42c.69-.09,1.4-.16,2.14-.22.74-.05,1.4-.08,2-.08,1.72,0,3.19.18,4.4.53,1.21.35,2.19.84,2.95,1.45.76.61,1.31,1.33,1.66,2.15.34.82.52,1.71.52,2.66,0,1.21-.26,2.27-.79,3.18s-1.25,1.65-2.19,2.23-2.04,1.02-3.34,1.31c-1.29.29-2.72.44-4.27.44-1.35,0-2.58-.07-3.69-.22s-2.12-.36-3.03-.63v-21.22h3.64Zm3.41,19.04c1.99,0,3.56-.34,4.7-1.02,1.14-.68,1.72-1.69,1.74-3.03,0-.54-.11-1.04-.34-1.52-.23-.48-.57-.88-1.02-1.21s-1.05-.59-1.79-.79c-.74-.2-1.64-.3-2.7-.3-.56,0-1.16.02-1.79.07-.63.05-1.36.13-2.21.25v7.25c.44.11.97.18,1.59.23.62.05,1.23.07,1.82.07Zm13.52,2.83v-21.87h3.64v21.87h-3.64Z"/>
    <path d="m522.08,1221.66h-3.2v-21.87h3.64v11.99c0,2.15-.04,3.73-.12,4.74h.09c.44-.71.97-1.5,1.6-2.39s1.31-1.82,2.04-2.79l8.84-11.56h3.2v21.87h-3.64v-11.99c0-1.69.04-3.27.12-4.74h-.09c-.44.71-.98,1.5-1.61,2.39-.64.89-1.32,1.82-2.06,2.79l-8.81,11.55Zm6.7-28.98c1.18,0,2.13-.38,2.86-1.13.73-.75,1.18-1.83,1.35-3.22h3.29c-.06.98-.27,1.91-.63,2.77-.36.87-.86,1.63-1.49,2.28-.63.65-1.4,1.17-2.3,1.55-.9.38-1.93.58-3.09.58s-2.16-.19-3.06-.58c-.89-.38-1.65-.9-2.27-1.55-.62-.65-1.1-1.41-1.45-2.28-.34-.87-.55-1.79-.61-2.77h3.27c.17,1.4.61,2.47,1.3,3.22.7.75,1.64,1.13,2.83,1.13Z"/>
    <path d="m564.46,1199.22c1.08,0,2.12.11,3.1.33.99.22,1.83.53,2.54.93v2.97c-.99-.37-1.9-.64-2.73-.83-.83-.18-1.68-.28-2.54-.28-.91,0-1.81.15-2.7.44-.89.29-1.69.77-2.4,1.44s-1.27,1.55-1.7,2.65-.65,2.46-.65,4.09c0,1.18.16,2.27.48,3.27.32,1,.8,1.86,1.43,2.59.64.73,1.43,1.3,2.39,1.7.96.41,2.06.61,3.31.61.91,0,1.83-.1,2.75-.29.93-.19,1.83-.46,2.7-.82v2.97c-.27.15-.62.31-1.05.46-.43.15-.91.29-1.42.4-.52.11-1.07.21-1.64.28-.58.07-1.16.1-1.74.1-1.5,0-2.93-.22-4.27-.67-1.34-.44-2.51-1.13-3.51-2.05-1-.92-1.79-2.09-2.37-3.5s-.87-3.08-.87-5.02c0-1.44.15-2.74.46-3.89s.72-2.16,1.26-3.04c.53-.87,1.15-1.62,1.87-2.23.71-.61,1.47-1.12,2.28-1.51s1.64-.68,2.5-.85c.86-.18,1.7-.26,2.52-.26Z"/>
    <path d="m586.58,1219.13c1.21,0,2.31-.1,3.3-.29,1-.19,1.99-.46,2.97-.82v2.97c-.8.38-1.79.69-2.96.91-1.17.22-2.44.33-3.78.33-1.6,0-3.1-.2-4.5-.6-1.4-.4-2.62-1.04-3.64-1.93-1.02-.89-1.83-2.05-2.41-3.49-.58-1.43-.87-3.16-.87-5.19s.28-3.72.84-5.19c.56-1.47,1.31-2.69,2.25-3.67.94-.98,2.02-1.72,3.24-2.21s2.49-.74,3.82-.74c1.25,0,2.42.2,3.51.61,1.09.41,2.03,1.05,2.83,1.92.8.87,1.43,2,1.89,3.38.46,1.38.69,3.04.69,4.97v.47c0,.13,0,.43-.02.89h-15.42c0,1.4.22,2.58.65,3.56.43.97,1.02,1.76,1.76,2.37.74.61,1.62,1.05,2.62,1.32,1,.28,2.08.41,3.24.41Zm-1.92-16.85c-.84,0-1.62.16-2.34.48-.72.32-1.35.76-1.89,1.31s-.98,1.2-1.31,1.95c-.33.74-.54,1.54-.62,2.38h11.42c0-.86-.11-1.66-.34-2.41-.23-.74-.57-1.39-1.01-1.95-.45-.55-.99-.99-1.64-1.3s-1.4-.47-2.26-.47Z"/>
    <path d="m619.72,1210.48c0,1.52-.15,2.87-.46,4.04-.31,1.17-.71,2.2-1.21,3.07-.5.87-1.09,1.61-1.77,2.2-.68.59-1.38,1.07-2.1,1.43s-1.46.62-2.21.78c-.75.16-1.45.24-2.11.24-1.37,0-2.56-.22-3.56-.66-1.01-.44-1.91-1.09-2.72-1.95h-.07v12.73h-3.57v-32.57h2.75l.78,2.49h.07c.2-.31.47-.61.79-.9.32-.29.75-.6,1.29-.93.54-.33,1.19-.62,1.95-.86.76-.25,1.59-.37,2.48-.37,1.25,0,2.46.21,3.63.62s2.2,1.07,3.09,1.98,1.61,2.07,2.15,3.49c.54,1.42.81,3.14.81,5.17Zm-3.81.05c0-1.27-.14-2.42-.41-3.43s-.69-1.88-1.24-2.59-1.23-1.26-2.03-1.65c-.8-.38-1.73-.58-2.79-.58-.76,0-1.45.1-2.07.3-.62.2-1.19.45-1.69.76-.5.31-.94.64-1.3.99-.36.35-.65.67-.87.94v11.44c.77.77,1.65,1.37,2.64,1.82s2.04.67,3.18.67c.69,0,1.43-.13,2.2-.38.77-.25,1.48-.71,2.14-1.36s1.19-1.54,1.62-2.66c.43-1.12.64-2.55.64-4.28Z"/>
    <path d="m638.95,1210.29c.53.05,1.06.18,1.59.4s1,.53,1.41.93c.41.4.75.9,1.01,1.5.26.6.39,1.3.39,2.09,0,1.33-.39,2.52-1.16,3.56-.78,1.04-1.93,1.81-3.47,2.31-.58.18-1.26.33-2.03.43-.78.1-1.68.15-2.72.15h-8.49v-21.87h8.96c.99,0,1.83.05,2.54.15.71.1,1.33.24,1.86.43,1.27.45,2.23,1.12,2.88,2.01.65.9.98,1.93.98,3.1,0,.69-.11,1.3-.32,1.83-.21.53-.49.98-.83,1.36-.35.38-.74.69-1.2.94-.45.25-.92.45-1.39.59v.09Zm-4.21-1.45c.92,0,1.61-.07,2.1-.21.7-.21,1.21-.56,1.55-1.04.33-.48.5-1.06.5-1.75,0-1.21-.51-2.06-1.51-2.55-.62-.32-1.6-.48-2.93-.48h-5.31v6.03h5.61Zm-.77,9.81c.84,0,1.55-.04,2.13-.11s1.07-.19,1.48-.35c.71-.28,1.22-.66,1.51-1.16s.44-1.09.44-1.76c0-.78-.2-1.43-.61-1.96-.4-.52-.96-.91-1.68-1.15-.59-.2-1.41-.3-2.45-.3h-5.68v6.79h4.85Z"/>
    <path d="m652.3,1221.66h-3.2v-21.87h3.64v11.99c0,2.15-.04,3.73-.12,4.74h.09c.44-.71.97-1.5,1.6-2.39s1.31-1.82,2.04-2.79l8.84-11.56h3.2v21.87h-3.64v-11.99c0-1.69.04-3.27.12-4.74h-.09c-.44.71-.98,1.5-1.61,2.39-.64.89-1.32,1.82-2.06,2.79l-8.81,11.55Z"/>
    <path d="m685.05,1199.22c1.08,0,2.12.11,3.1.33.99.22,1.83.53,2.54.93v2.97c-.99-.37-1.9-.64-2.73-.83-.83-.18-1.68-.28-2.54-.28-.91,0-1.81.15-2.7.44-.89.29-1.69.77-2.4,1.44s-1.27,1.55-1.7,2.65-.65,2.46-.65,4.09c0,1.18.16,2.27.48,3.27.32,1,.8,1.86,1.43,2.59.64.73,1.43,1.3,2.39,1.7.96.41,2.06.61,3.31.61.91,0,1.83-.1,2.75-.29.93-.19,1.83-.46,2.7-.82v2.97c-.27.15-.62.31-1.05.46-.43.15-.91.29-1.42.4-.52.11-1.07.21-1.64.28-.58.07-1.16.1-1.74.1-1.5,0-2.93-.22-4.27-.67-1.34-.44-2.51-1.13-3.51-2.05-1-.92-1.79-2.09-2.37-3.5s-.87-3.08-.87-5.02c0-1.44.15-2.74.46-3.89s.72-2.16,1.26-3.04c.53-.87,1.15-1.62,1.87-2.23.71-.61,1.47-1.12,2.28-1.51s1.64-.68,2.5-.85c.86-.18,1.7-.26,2.52-.26Z"/>
    <path d="m724.12,1199.79v18.81h3.64v10.89h-3.64v-7.83h-16.62v7.83h-3.64v-10.89h1.18c1.07-1.12,2.03-2.3,2.89-3.55.86-1.24,1.61-2.62,2.23-4.12.63-1.5,1.13-3.17,1.5-4.99.38-1.83.61-3.87.71-6.15h11.75Zm-8.11,3.06c-.17,1.9-.47,3.61-.89,5.11-.42,1.5-.95,2.87-1.58,4.11-.63,1.24-1.35,2.37-2.15,3.41-.8,1.04-1.68,2.04-2.64,3.03l-.09.09h11.8v-15.74h-4.47Z"/>
    <path d="m752.44,1199.79v21.87h-3.64v-18.81h-5.2c-.45,3.01-.98,5.57-1.59,7.7-.61,2.13-1.24,3.9-1.91,5.32-.66,1.42-1.32,2.55-1.97,3.38-.65.84-1.31,1.46-1.97,1.86-.67.41-1.33.67-1.97.79-.65.12-1.27.18-1.85.18-.38,0-.7-.02-.96-.07v-3.71c.2.03.39.05.56.05.58.02,1.12-.05,1.61-.21.49-.15.96-.43,1.39-.82.43-.39.87-.99,1.32-1.81.45-.81.88-1.91,1.29-3.28.41-1.37.83-3.08,1.23-5.11.41-2.03.8-4.48,1.17-7.35h12.48Z"/>
    <path d="m759.1,1206.88c0-1.37.34-2.61,1.03-3.73.69-1.12,1.73-1.98,3.13-2.58.59-.26,1.29-.46,2.08-.59.79-.13,1.75-.2,2.88-.2h8.27v21.87h-3.64v-8.54h-5.64l-5.24,8.54h-3.64l5.24-9.02c-.71-.17-1.33-.43-1.88-.79s-1.01-.79-1.4-1.29c-.38-.5-.68-1.06-.88-1.69-.2-.63-.31-1.29-.31-1.98Zm9.21-4.03c-.75,0-1.39.03-1.9.1-.52.07-.98.2-1.39.38-.66.29-1.17.72-1.55,1.28-.38.56-.56,1.26-.56,2.11,0,.63.11,1.16.33,1.6s.54.79.95,1.06c.42.27.92.46,1.5.59s1.25.18,1.99.18h5.17v-7.3h-4.54Z"/>
    <path d="m790.36,1199.79h3.64l6.94,17.15h.14l7.12-17.15h3.64l-13.83,32.57h-3.62l4.77-11.14-8.81-21.43Z"/>
    <path d="m826.99,1221.66l-4.25-10.47c-.9-2.19-1.83-4.54-2.78-7.04h-.21c.11,1.83.17,4.15.17,6.97v10.54h-3.64v-21.87h5.16l4.01,9.94c.96,2.35,1.8,4.54,2.52,6.58h.17c.77-2.1,1.61-4.3,2.52-6.58l4.03-9.94h5.16v21.87h-3.64v-10.54c0-2.52.05-4.84.17-6.97h-.21c-.66,1.75-1.58,4.1-2.78,7.04l-4.25,10.47h-2.12Z"/>
    <path d="m861.73,1221.66v-9.78h-11.26v9.78h-3.64v-21.87h3.64v9.02h11.26v-9.02h3.64v21.87h-3.64Z"/>
    <path d="m876.07,1199.79v8.42c.69-.09,1.4-.16,2.14-.22.74-.05,1.4-.08,2-.08,1.72,0,3.19.18,4.4.53,1.21.35,2.19.84,2.95,1.45.76.61,1.31,1.33,1.66,2.15.34.82.52,1.71.52,2.66,0,1.21-.26,2.27-.79,3.18s-1.25,1.65-2.19,2.23-2.04,1.02-3.34,1.31c-1.29.29-2.72.44-4.27.44-1.35,0-2.58-.07-3.69-.22s-2.12-.36-3.03-.63v-21.22h3.64Zm3.41,19.04c1.99,0,3.56-.34,4.7-1.02,1.14-.68,1.72-1.69,1.74-3.03,0-.54-.11-1.04-.34-1.52-.23-.48-.57-.88-1.02-1.21s-1.05-.59-1.79-.79c-.74-.2-1.64-.3-2.7-.3-.56,0-1.16.02-1.79.07-.63.05-1.36.13-2.21.25v7.25c.44.11.97.18,1.59.23.62.05,1.23.07,1.82.07Zm13.52,2.83v-21.87h3.64v21.87h-3.64Z"/>
    <path d="m911.44,1208.22l6.06-8.42h4.02l-8.16,10.82,8.46,11.05h-3.95l-6.53-8.75h-.09l-6.44,8.75h-3.95l8.46-11.14-8.16-10.73h4.02l6.16,8.42h.09Z"/>
    <path d="m953.95,1199.79v21.87h-3.64v-18.81h-5.2c-.45,3.01-.98,5.57-1.59,7.7-.61,2.13-1.24,3.9-1.91,5.32-.66,1.42-1.32,2.55-1.97,3.38-.65.84-1.31,1.46-1.97,1.86-.67.41-1.33.67-1.97.79-.65.12-1.27.18-1.85.18-.38,0-.7-.02-.96-.07v-3.71c.2.03.39.05.56.05.58.02,1.12-.05,1.61-.21.49-.15.96-.43,1.39-.82.43-.39.87-.99,1.32-1.81.45-.81.88-1.91,1.29-3.28.41-1.37.83-3.08,1.23-5.11.41-2.03.8-4.48,1.17-7.35h12.48Z"/>
    <path d="m964.64,1211.88v9.78h-3.64v-21.87h3.64v9.02h4.72c.17-1.46.54-2.78,1.12-3.96.57-1.18,1.31-2.19,2.21-3.03s1.96-1.48,3.17-1.93c1.21-.45,2.55-.68,4.01-.68,1.65,0,3.13.28,4.44.83,1.32.55,2.43,1.34,3.34,2.35.91,1.01,1.61,2.23,2.09,3.64.48,1.41.73,2.98.73,4.72s-.25,3.28-.75,4.7c-.5,1.41-1.21,2.62-2.13,3.63-.92,1.01-2.03,1.78-3.33,2.34-1.3.55-2.76.83-4.37.83s-2.98-.25-4.24-.74c-1.26-.49-2.34-1.19-3.24-2.09-.9-.91-1.62-1.99-2.14-3.27-.52-1.27-.84-2.69-.95-4.26h-4.68Zm22.03-1.13c0-1.35-.17-2.55-.5-3.6-.34-1.05-.8-1.94-1.4-2.67-.6-.73-1.31-1.28-2.14-1.66-.83-.38-1.73-.56-2.71-.56s-1.88.19-2.71.56c-.82.38-1.54.93-2.14,1.66-.6.73-1.07,1.62-1.4,2.67s-.5,2.25-.5,3.6.17,2.53.5,3.58c.33,1.05.81,1.94,1.41,2.66.61.72,1.32,1.27,2.15,1.65.82.38,1.73.56,2.71.56s1.88-.19,2.7-.56c.82-.38,1.53-.92,2.12-1.65.6-.72,1.07-1.61,1.4-2.66.33-1.05.5-2.24.5-3.58Z"/>
    <path d="m1012.97,1199.79v18.81h3.64v10.89h-3.64v-7.83h-16.62v7.83h-3.64v-10.89h1.18c1.07-1.12,2.03-2.3,2.89-3.55.86-1.24,1.61-2.62,2.23-4.12.63-1.5,1.13-3.17,1.5-4.99.38-1.83.61-3.87.71-6.15h11.75Zm-8.11,3.06c-.17,1.9-.47,3.61-.89,5.11-.42,1.5-.95,2.87-1.58,4.11-.63,1.24-1.35,2.37-2.15,3.41-.8,1.04-1.68,2.04-2.64,3.03l-.09.09h11.8v-15.74h-4.47Z"/>
    <path d="m1032.72,1219.13c1.21,0,2.31-.1,3.3-.29,1-.19,1.99-.46,2.97-.82v2.97c-.8.38-1.79.69-2.96.91-1.17.22-2.44.33-3.78.33-1.6,0-3.1-.2-4.5-.6-1.4-.4-2.62-1.04-3.64-1.93-1.02-.89-1.83-2.05-2.41-3.49-.58-1.43-.87-3.16-.87-5.19s.28-3.72.84-5.19c.56-1.47,1.31-2.69,2.25-3.67.94-.98,2.02-1.72,3.24-2.21s2.49-.74,3.82-.74c1.25,0,2.42.2,3.51.61,1.09.41,2.03,1.05,2.83,1.92.8.87,1.43,2,1.89,3.38.46,1.38.69,3.04.69,4.97v.47c0,.13,0,.43-.02.89h-15.42c0,1.4.22,2.58.65,3.56.43.97,1.02,1.76,1.76,2.37.74.61,1.62,1.05,2.62,1.32,1,.28,2.08.41,3.24.41Zm-1.92-16.85c-.84,0-1.62.16-2.34.48-.72.32-1.35.76-1.89,1.31s-.98,1.2-1.31,1.95c-.33.74-.54,1.54-.62,2.38h11.42c0-.86-.11-1.66-.34-2.41-.23-.74-.57-1.39-1.01-1.95-.45-.55-.99-.99-1.64-1.3s-1.4-.47-2.26-.47Z"/>
    <path d="m1049.27,1221.66h-3.2v-21.87h3.64v11.99c0,2.15-.04,3.73-.12,4.74h.09c.44-.71.97-1.5,1.6-2.39s1.31-1.82,2.04-2.79l8.84-11.56h3.2v21.87h-3.64v-11.99c0-1.69.04-3.27.12-4.74h-.09c-.44.71-.98,1.5-1.61,2.39-.64.89-1.32,1.82-2.06,2.79l-8.81,11.55Zm6.7-28.98c1.18,0,2.13-.38,2.86-1.13.73-.75,1.18-1.83,1.35-3.22h3.29c-.06.98-.27,1.91-.63,2.77-.36.87-.86,1.63-1.49,2.28-.63.65-1.4,1.17-2.3,1.55-.9.38-1.93.58-3.09.58s-2.16-.19-3.06-.58c-.89-.38-1.65-.9-2.27-1.55-.62-.65-1.1-1.41-1.45-2.28-.34-.87-.55-1.79-.61-2.77h3.27c.17,1.4.61,2.47,1.3,3.22.7.75,1.64,1.13,2.83,1.13Z"/>
  </g>
</svg>