<svg width="3560" height="877" viewBox="0 0 3560 877" fill="none" xmlns="http://www.w3.org/2000/svg">
<g clip-path="url(#clip0_9_19)">
<path d="M751.77 215.585L387.33 5.18508L380 0.955078L372.67 5.18508L8.24014 215.585L0.910156 219.825V657.565L8.24014 661.805L372.68 872.205L380.01 876.435L387.34 872.205L751.78 661.805L759.11 657.565V219.825L751.78 215.585H751.77ZM710.31 629.395L703.93 633.085L386.39 816.415L380 820.105L373.61 816.415L56.0702 633.085L49.6902 629.395V247.995L56.0702 244.305L373.61 60.9751L380 57.2851L386.39 60.9751L703.93 244.305L710.31 247.995V629.405V629.395Z" fill="url(#paint0_linear_9_19)"/>
<path d="M435.911 466.895H330.891L428.381 559.245C411.991 566.895 393.281 570.715 372.301 570.715C348.681 570.715 327.191 565.225 307.781 554.215C288.371 543.215 272.981 527.715 261.571 507.705C250.181 487.695 244.471 464.105 244.471 436.885C244.471 412.095 249.571 390.175 259.761 371.165C269.981 352.175 284.071 337.265 302.081 326.465C320.081 315.665 341.081 310.255 365.081 310.255C391.891 310.255 414.791 316.555 433.801 329.165C452.791 341.775 467.401 358.465 477.611 379.265C487.811 400.085 492.901 423.075 492.901 448.275C492.901 470.595 488.651 490.475 480.111 507.955L435.891 466.885L435.911 466.895Z" fill="url(#paint1_linear_9_19)"/>
<path d="M672.481 269.835V607.555L619.931 637.895L548.351 571.365C558.141 557.635 566.261 542.635 572.741 526.325C583.541 499.135 588.951 469.325 588.951 436.905C588.951 404.485 583.451 374.895 572.441 348.095C561.431 321.285 545.841 298.095 525.641 278.475C505.431 258.875 481.711 243.765 454.521 233.165C427.311 222.585 397.521 217.265 365.101 217.265C332.681 217.265 303.301 222.585 275.681 233.165C248.071 243.765 223.861 258.885 203.071 278.475C182.251 298.095 166.061 321.285 154.471 348.095C142.851 374.905 137.061 404.495 137.061 436.905C137.061 469.315 142.651 499.135 153.851 526.325C165.051 553.545 180.951 577.145 201.561 597.145C222.151 617.155 246.281 632.655 273.891 643.665C301.491 654.645 331.891 660.155 365.101 660.155C398.311 660.155 428.021 654.655 455.411 643.665C469.731 637.905 483.051 630.935 495.351 622.685L552.551 676.815L380.011 776.435L87.541 607.575V269.855L380.011 100.995L672.481 269.855V269.835Z" fill="url(#paint2_linear_9_19)"/>
</g>
<g clip-path="url(#clip1_9_19)">
<path d="M1277.43 416.655L1342.51 485.815H1268.55L1232.19 447.735C1192.83 465.695 1155.43 474.655 1120.03 474.655C1056.35 474.655 1002.27 453.335 957.789 410.655C913.309 367.975 891.109 316.295 891.109 255.575C891.109 194.855 913.589 146.775 958.549 104.975C1003.51 63.1754 1057.67 42.2554 1121.07 42.2554C1184.47 42.2554 1237.03 63.0553 1281.95 104.655C1326.91 146.255 1349.35 195.935 1349.35 253.655C1349.35 319.015 1325.39 373.375 1277.43 416.655ZM1189.59 403.055L1098.55 307.655H1172.51L1236.39 374.575C1271.51 341.655 1289.11 302.655 1289.11 257.615C1289.11 212.575 1272.71 175.135 1239.91 144.655C1207.11 114.175 1166.39 98.9353 1117.79 98.9353C1069.19 98.9353 1032.19 114.415 999.709 145.415C967.229 176.415 951.029 213.975 951.029 258.095C951.029 302.215 967.629 339.695 1000.83 370.455C1034.03 401.215 1074.51 416.615 1122.23 416.615C1142.19 416.615 1164.63 412.095 1189.59 403.015V403.055Z" fill="white"/>
<path d="M1421.35 55.6152H1478.03V305.135C1478.03 342.095 1487.11 370.655 1505.23 390.855C1523.35 411.055 1549.03 421.135 1582.27 421.135C1615.51 421.135 1640.95 411.855 1659.31 393.255C1677.67 374.655 1686.83 348.495 1686.83 314.695V55.6152H1743.51V310.855C1743.51 360.575 1729.03 400.295 1700.03 430.015C1671.03 459.775 1632.47 474.615 1584.23 474.615C1535.99 474.615 1495.47 459.535 1465.83 429.375C1436.19 399.215 1421.39 354.695 1421.39 295.855V55.5752L1421.35 55.6152Z" fill="white"/>
<path d="M1981.03 39.3354L2176.95 460.935H2117.55L2069.39 357.055H1893.31L1845.71 460.935H1786.75L1981.03 39.3354ZM1980.87 166.055L1914.51 310.855H2047.99L1980.91 166.055H1980.87Z" fill="white"/>
<path d="M2225.79 38.6953L2532.59 347.255V54.9754H2589.27V479.735L2282.47 172.575V460.935H2225.79V38.7354V38.6953Z" fill="white"/>
<path d="M2648.55 54.9756H2902.27V110.416H2803.27V460.935H2747.27V110.416H2648.59V54.9756H2648.55Z" fill="white"/>
<path d="M2961.55 54.9756H3191.47V110.416H3017.55V211.736H3191.47V266.536H3017.55V406.096H3191.47V460.895H2961.55V54.9355V54.9756Z" fill="white"/>
<path d="M3242.31 54.9756H3304.71L3397.47 203.016L3489.15 54.9756H3552.39L3429.11 254.056L3555.99 460.935H3493.19L3397.59 304.976L3300.99 460.935H3237.75L3365.99 253.856L3242.31 54.9756Z" fill="white"/>
<path d="M891.47 705.535H906.03L933.79 774.135H934.35L962.83 705.535H977.39L922.07 835.815H907.59L926.67 791.255L891.43 705.535H891.47Z" fill="white"/>
<path d="M1037.99 792.975L1020.99 751.095C1017.39 742.335 1013.67 732.935 1009.87 722.935H1009.03C1009.47 730.255 1009.71 739.535 1009.71 750.815V792.975H995.148V705.495H1015.79L1031.83 745.255C1035.67 754.655 1039.03 763.415 1041.91 771.575H1042.59C1045.67 763.175 1049.03 754.375 1052.67 745.255L1068.79 705.495H1089.43V792.975H1074.87V750.815C1074.87 740.735 1075.07 731.455 1075.55 722.935H1074.71C1072.07 729.935 1068.39 739.335 1063.59 751.095L1046.59 792.975H1038.11H1037.99Z" fill="white"/>
<path d="M1176.91 792.975V753.855H1131.87V792.975H1117.31V705.495H1131.87V741.575H1176.91V705.495H1191.47V792.975H1176.91Z" fill="white"/>
<path d="M1234.27 705.535V739.215C1237.03 738.855 1239.87 738.575 1242.83 738.335C1245.79 738.135 1248.43 738.015 1250.83 738.015C1257.71 738.015 1263.59 738.735 1268.43 740.135C1273.27 741.535 1277.19 743.495 1280.23 745.935C1283.27 748.375 1285.47 751.255 1286.87 754.535C1288.23 757.815 1288.95 761.375 1288.95 765.175C1288.95 770.015 1287.91 774.255 1285.79 777.895C1283.67 781.535 1280.79 784.495 1277.03 786.815C1273.27 789.135 1268.87 790.895 1263.67 792.055C1258.51 793.215 1252.79 793.815 1246.59 793.815C1241.19 793.815 1236.27 793.535 1231.83 792.935C1227.39 792.335 1223.35 791.495 1219.71 790.415V705.535H1234.27ZM1247.91 781.695C1255.87 781.695 1262.15 780.335 1266.71 777.615C1271.27 774.895 1273.59 770.855 1273.67 765.495C1273.67 763.335 1273.23 761.335 1272.31 759.415C1271.39 757.495 1270.03 755.895 1268.23 754.575C1266.43 753.255 1264.03 752.215 1261.07 751.415C1258.11 750.615 1254.51 750.215 1250.27 750.215C1248.03 750.215 1245.63 750.295 1243.11 750.495C1240.59 750.695 1237.67 751.015 1234.27 751.495V780.495C1236.03 780.935 1238.15 781.215 1240.63 781.415C1243.11 781.615 1245.55 781.695 1247.91 781.695ZM1301.99 793.015V705.535H1316.55V793.015H1301.99Z" fill="white"/>
<path d="M1357.55 792.975H1344.75V705.495H1359.31V753.455C1359.31 762.055 1359.15 768.375 1358.83 772.415H1359.19C1360.95 769.575 1363.07 766.415 1365.59 762.855C1368.11 759.295 1370.83 755.575 1373.75 751.695L1409.11 705.455H1421.91V792.935H1407.35V744.975C1407.35 738.215 1407.51 731.895 1407.83 726.015H1407.47C1405.71 728.855 1403.55 732.015 1401.03 735.575C1398.47 739.135 1395.75 742.855 1392.79 746.735L1357.55 792.935V792.975ZM1384.35 677.055C1389.07 677.055 1392.87 675.535 1395.79 672.535C1398.71 669.535 1400.51 665.215 1401.19 659.655H1414.35C1414.11 663.575 1413.27 667.295 1411.83 670.735C1410.39 674.215 1408.39 677.255 1405.87 679.855C1403.35 682.455 1400.27 684.535 1396.67 686.055C1393.07 687.575 1388.95 688.375 1384.31 688.375C1379.67 688.375 1375.67 687.615 1372.07 686.055C1368.51 684.535 1365.47 682.455 1362.99 679.855C1360.51 677.255 1358.59 674.215 1357.19 670.735C1355.83 667.255 1354.99 663.575 1354.75 659.655H1367.83C1368.51 665.255 1370.27 669.535 1373.03 672.535C1375.83 675.535 1379.59 677.055 1384.35 677.055Z" fill="white"/>
<path d="M1527.07 703.216C1531.39 703.216 1535.55 703.656 1539.47 704.536C1543.43 705.416 1546.79 706.656 1549.63 708.256V720.136C1545.67 718.656 1542.03 717.576 1538.71 716.816C1535.39 716.096 1531.99 715.696 1528.55 715.696C1524.91 715.696 1521.31 716.296 1517.75 717.456C1514.19 718.616 1510.99 720.536 1508.15 723.216C1505.31 725.896 1503.07 729.416 1501.35 733.816C1499.63 738.216 1498.75 743.656 1498.75 750.176C1498.75 754.896 1499.39 759.256 1500.67 763.256C1501.95 767.256 1503.87 770.696 1506.39 773.616C1508.95 776.536 1512.11 778.816 1515.95 780.416C1519.79 782.056 1524.19 782.856 1529.19 782.856C1532.83 782.856 1536.51 782.456 1540.19 781.696C1543.91 780.936 1547.51 779.856 1550.99 778.416V790.296C1549.91 790.896 1548.51 791.536 1546.79 792.136C1545.07 792.736 1543.15 793.296 1541.11 793.736C1539.03 794.176 1536.83 794.576 1534.55 794.856C1532.23 795.136 1529.91 795.256 1527.59 795.256C1521.59 795.256 1515.87 794.376 1510.51 792.576C1505.15 790.816 1500.47 788.056 1496.47 784.376C1492.47 780.696 1489.31 776.016 1486.99 770.376C1484.67 764.736 1483.51 758.056 1483.51 750.296C1483.51 744.536 1484.11 739.336 1485.35 734.736C1486.59 730.136 1488.23 726.096 1490.39 722.576C1492.51 719.096 1494.99 716.096 1497.87 713.656C1500.71 711.216 1503.75 709.176 1506.99 707.616C1510.23 706.056 1513.55 704.896 1516.99 704.216C1520.43 703.496 1523.79 703.176 1527.07 703.176V703.216Z" fill="white"/>
<path d="M1615.55 782.856C1620.39 782.856 1624.79 782.456 1628.75 781.696C1632.75 780.936 1636.71 779.856 1640.63 778.416V790.296C1637.43 791.816 1633.47 793.056 1628.79 793.936C1624.11 794.816 1619.03 795.256 1613.67 795.256C1607.27 795.256 1601.27 794.456 1595.67 792.856C1590.07 791.256 1585.19 788.696 1581.11 785.136C1577.03 781.576 1573.79 776.936 1571.47 771.176C1569.15 765.456 1567.99 758.536 1567.99 750.416C1567.99 742.296 1569.11 735.536 1571.35 729.656C1573.59 723.776 1576.59 718.896 1580.35 714.976C1584.11 711.056 1588.43 708.096 1593.31 706.136C1598.19 704.176 1603.27 703.176 1608.59 703.176C1613.59 703.176 1618.27 703.976 1622.63 705.616C1626.99 707.256 1630.75 709.816 1633.95 713.296C1637.15 716.776 1639.67 721.296 1641.51 726.816C1643.35 732.336 1644.27 738.976 1644.27 746.696V748.576C1644.27 749.096 1644.27 750.296 1644.19 752.136H1582.51C1582.51 757.736 1583.39 762.456 1585.11 766.376C1586.83 770.256 1589.19 773.416 1592.15 775.856C1595.11 778.296 1598.63 780.056 1602.63 781.136C1606.63 782.256 1610.95 782.776 1615.59 782.776L1615.55 782.856ZM1607.87 715.456C1604.51 715.456 1601.39 716.096 1598.51 717.376C1595.63 718.656 1593.11 720.416 1590.95 722.616C1588.79 724.816 1587.03 727.416 1585.71 730.416C1584.39 733.376 1583.55 736.576 1583.23 739.936H1628.91C1628.91 736.496 1628.47 733.296 1627.55 730.296C1626.63 727.336 1625.27 724.736 1623.51 722.496C1621.71 720.296 1619.55 718.536 1616.95 717.296C1614.35 716.056 1611.35 715.416 1607.91 715.416L1607.87 715.456Z" fill="white"/>
<path d="M1748.15 748.255C1748.15 754.335 1747.55 759.735 1746.31 764.415C1745.07 769.095 1743.47 773.215 1741.47 776.695C1739.47 780.175 1737.11 783.135 1734.39 785.495C1731.67 787.855 1728.87 789.775 1725.99 791.215C1723.11 792.655 1720.15 793.695 1717.15 794.335C1714.15 794.975 1711.35 795.295 1708.71 795.295C1703.23 795.295 1698.47 794.415 1694.47 792.655C1690.43 790.895 1686.83 788.295 1683.59 784.855H1683.31V835.775H1669.03V705.495H1680.03L1683.15 715.455H1683.43C1684.23 714.215 1685.31 713.015 1686.59 711.855C1687.87 710.695 1689.59 709.455 1691.75 708.135C1693.91 706.815 1696.51 705.655 1699.55 704.695C1702.59 703.695 1705.91 703.215 1709.47 703.215C1714.47 703.215 1719.31 704.055 1723.99 705.695C1728.67 707.335 1732.79 709.975 1736.35 713.615C1739.91 717.255 1742.79 721.895 1744.95 727.575C1747.11 733.255 1748.19 740.135 1748.19 748.255H1748.15ZM1732.91 748.455C1732.91 743.375 1732.35 738.775 1731.27 734.735C1730.19 730.695 1728.51 727.215 1726.31 724.375C1724.11 721.535 1721.39 719.335 1718.19 717.775C1714.99 716.255 1711.27 715.455 1707.03 715.455C1703.99 715.455 1701.23 715.855 1698.75 716.655C1696.27 717.455 1693.99 718.455 1691.99 719.695C1689.99 720.935 1688.23 722.255 1686.79 723.655C1685.35 725.055 1684.19 726.335 1683.31 727.415V773.175C1686.39 776.255 1689.91 778.655 1693.87 780.455C1697.83 782.255 1702.03 783.135 1706.59 783.135C1709.35 783.135 1712.31 782.615 1715.39 781.615C1718.47 780.615 1721.31 778.775 1723.95 776.175C1726.59 773.575 1728.71 770.015 1730.43 765.535C1732.15 761.055 1732.99 755.335 1732.99 748.415L1732.91 748.455Z" fill="white"/>
<path d="M1825.07 747.495C1827.19 747.695 1829.31 748.215 1831.43 749.095C1833.55 749.975 1835.43 751.215 1837.07 752.815C1838.71 754.415 1840.07 756.415 1841.11 758.815C1842.15 761.215 1842.67 764.015 1842.67 767.175C1842.67 772.495 1841.11 777.255 1838.03 781.415C1834.91 785.575 1830.31 788.655 1824.15 790.655C1821.83 791.375 1819.11 791.975 1816.03 792.375C1812.91 792.775 1809.31 792.975 1805.15 792.975H1771.19V705.495H1807.03C1810.99 705.495 1814.35 705.695 1817.19 706.095C1820.03 706.495 1822.51 707.055 1824.63 707.815C1829.71 709.615 1833.55 712.295 1836.15 715.855C1838.75 719.455 1840.07 723.575 1840.07 728.255C1840.07 731.015 1839.63 733.455 1838.79 735.575C1837.95 737.695 1836.83 739.495 1835.47 741.015C1834.07 742.535 1832.51 743.775 1830.67 744.775C1828.87 745.775 1826.99 746.575 1825.11 747.135V747.495H1825.07ZM1808.23 741.695C1811.91 741.695 1814.67 741.415 1816.63 740.855C1819.43 740.015 1821.47 738.615 1822.83 736.695C1824.15 734.775 1824.83 732.455 1824.83 729.695C1824.83 724.855 1822.79 721.455 1818.79 719.495C1816.31 718.215 1812.39 717.575 1807.07 717.575H1785.83V741.695H1808.27H1808.23ZM1805.15 780.935C1808.51 780.935 1811.35 780.775 1813.67 780.495C1815.99 780.215 1817.95 779.735 1819.59 779.095C1822.43 777.975 1824.47 776.455 1825.63 774.455C1826.79 772.455 1827.39 770.095 1827.39 767.415C1827.39 764.295 1826.59 761.695 1824.95 759.575C1823.35 757.495 1821.11 755.935 1818.23 754.975C1815.87 754.175 1812.59 753.775 1808.43 753.775H1785.71V780.935H1805.11H1805.15Z" fill="white"/>
<path d="M1878.47 792.975H1865.67V705.495H1880.23V753.455C1880.23 762.055 1880.07 768.375 1879.75 772.415H1880.11C1881.87 769.575 1883.99 766.415 1886.51 762.855C1889.03 759.295 1891.75 755.575 1894.67 751.695L1930.03 705.455H1942.83V792.935H1928.27V744.975C1928.27 738.215 1928.43 731.895 1928.75 726.015H1928.39C1926.63 728.855 1924.47 732.015 1921.95 735.575C1919.39 739.135 1916.67 742.855 1913.71 746.735L1878.47 792.935V792.975Z" fill="white"/>
<path d="M2009.43 703.216C2013.75 703.216 2017.91 703.656 2021.83 704.536C2025.79 705.416 2029.15 706.656 2031.99 708.256V720.136C2028.03 718.656 2024.39 717.576 2021.07 716.816C2017.75 716.096 2014.35 715.696 2010.91 715.696C2007.27 715.696 2003.67 716.296 2000.11 717.456C1996.55 718.616 1993.35 720.536 1990.51 723.216C1987.67 725.896 1985.43 729.416 1983.71 733.816C1981.99 738.216 1981.11 743.656 1981.11 750.176C1981.11 754.896 1981.75 759.256 1983.03 763.256C1984.31 767.256 1986.23 770.696 1988.75 773.616C1991.31 776.536 1994.47 778.816 1998.31 780.416C2002.15 782.056 2006.55 782.856 2011.55 782.856C2015.19 782.856 2018.87 782.456 2022.55 781.696C2026.27 780.936 2029.87 779.856 2033.35 778.416V790.296C2032.27 790.896 2030.87 791.536 2029.15 792.136C2027.43 792.736 2025.51 793.296 2023.47 793.736C2021.39 794.176 2019.19 794.576 2016.91 794.856C2014.59 795.136 2012.27 795.256 2009.95 795.256C2003.95 795.256 1998.23 794.376 1992.87 792.576C1987.51 790.816 1982.83 788.056 1978.83 784.376C1974.83 780.696 1971.67 776.016 1969.35 770.376C1967.03 764.736 1965.87 758.056 1965.87 750.296C1965.87 744.536 1966.47 739.336 1967.71 734.736C1968.95 730.136 1970.59 726.096 1972.75 722.576C1974.87 719.096 1977.35 716.096 1980.23 713.656C1983.07 711.216 1986.11 709.176 1989.35 707.616C1992.59 706.056 1995.91 704.896 1999.35 704.216C2002.79 703.496 2006.15 703.176 2009.43 703.176V703.216Z" fill="white"/>
<path d="M2165.71 705.535V780.775H2180.27V824.335H2165.71V793.015H2099.23V824.335H2084.67V780.775H2089.39C2093.67 776.295 2097.51 771.575 2100.95 766.575C2104.39 761.615 2107.39 756.095 2109.87 750.095C2112.39 744.095 2114.39 737.415 2115.87 730.135C2117.39 722.815 2118.31 714.655 2118.71 705.535H2165.71ZM2133.27 717.775C2132.59 725.375 2131.39 732.215 2129.71 738.215C2128.03 744.215 2125.91 749.695 2123.39 754.655C2120.87 759.615 2117.99 764.135 2114.79 768.295C2111.59 772.455 2108.07 776.455 2104.23 780.415L2103.87 780.775H2151.07V717.815H2133.19L2133.27 717.775Z" fill="white"/>
<path d="M2279.03 705.535V793.015H2264.47V717.775H2243.67C2241.87 729.815 2239.75 740.055 2237.31 748.575C2234.87 757.095 2232.35 764.175 2229.67 769.855C2227.03 775.535 2224.39 780.055 2221.79 783.375C2219.19 786.735 2216.55 789.215 2213.91 790.815C2211.23 792.455 2208.59 793.495 2206.03 793.975C2203.43 794.455 2200.95 794.695 2198.63 794.695C2197.11 794.695 2195.83 794.615 2194.79 794.415V779.575C2195.59 779.695 2196.35 779.775 2197.03 779.775C2199.35 779.855 2201.51 779.575 2203.47 778.935C2205.43 778.335 2207.31 777.215 2209.03 775.655C2210.75 774.095 2212.51 771.695 2214.31 768.415C2216.11 765.175 2217.83 760.775 2219.47 755.295C2221.11 749.815 2222.79 742.975 2224.39 734.855C2226.03 726.735 2227.59 716.935 2229.07 705.455H2278.99L2279.03 705.535Z" fill="white"/>
<path d="M2305.63 733.855C2305.63 728.375 2306.99 723.415 2309.75 718.935C2312.51 714.455 2316.67 711.015 2322.27 708.615C2324.63 707.575 2327.43 706.775 2330.59 706.255C2333.75 705.735 2337.59 705.455 2342.11 705.455H2375.19V792.935H2360.63V758.775H2338.07L2317.11 792.935H2302.55L2323.51 756.855C2320.67 756.175 2318.19 755.135 2315.99 753.695C2313.79 752.255 2311.95 750.535 2310.39 748.535C2308.87 746.535 2307.67 744.295 2306.87 741.775C2306.07 739.255 2305.63 736.615 2305.63 733.855ZM2342.47 717.735C2339.47 717.735 2336.91 717.855 2334.87 718.135C2332.79 718.415 2330.95 718.935 2329.31 719.655C2326.67 720.815 2324.63 722.535 2323.11 724.775C2321.59 727.015 2320.87 729.815 2320.87 733.215C2320.87 735.735 2321.31 737.855 2322.19 739.615C2323.07 741.375 2324.35 742.775 2325.99 743.855C2327.67 744.935 2329.67 745.695 2331.99 746.215C2334.31 746.735 2336.99 746.935 2339.95 746.935H2360.63V717.735H2342.47Z" fill="white"/>
<path d="M2430.67 705.535H2445.23L2472.99 774.135H2473.55L2502.03 705.535H2516.59L2461.27 835.815H2446.79L2465.87 791.255L2430.63 705.535H2430.67Z" fill="white"/>
<path d="M2577.23 792.975L2560.23 751.095C2556.63 742.335 2552.91 732.935 2549.11 722.935H2548.27C2548.71 730.255 2548.95 739.535 2548.95 750.815V792.975H2534.39V705.495H2555.03L2571.07 745.255C2574.91 754.655 2578.27 763.415 2581.15 771.575H2581.83C2584.91 763.175 2588.27 754.375 2591.91 745.255L2608.03 705.495H2628.67V792.975H2614.11V750.815C2614.11 740.735 2614.31 731.455 2614.79 722.935H2613.95C2611.31 729.935 2607.63 739.335 2602.83 751.095L2585.83 792.975H2577.35H2577.23Z" fill="white"/>
<path d="M2716.15 792.975V753.855H2671.11V792.975H2656.55V705.495H2671.11V741.575H2716.15V705.495H2730.71V792.975H2716.15Z" fill="white"/>
<path d="M2773.51 705.535V739.215C2776.27 738.855 2779.11 738.575 2782.07 738.335C2785.03 738.135 2787.67 738.015 2790.07 738.015C2796.95 738.015 2802.83 738.735 2807.67 740.135C2812.51 741.535 2816.43 743.495 2819.47 745.935C2822.51 748.375 2824.71 751.255 2826.11 754.535C2827.47 757.815 2828.19 761.375 2828.19 765.175C2828.19 770.015 2827.15 774.255 2825.03 777.895C2822.91 781.535 2820.03 784.495 2816.27 786.815C2812.51 789.135 2808.11 790.895 2802.91 792.055C2797.75 793.215 2792.03 793.815 2785.83 793.815C2780.43 793.815 2775.51 793.535 2771.07 792.935C2766.63 792.335 2762.59 791.495 2758.95 790.415V705.535H2773.51ZM2787.15 781.695C2795.11 781.695 2801.39 780.335 2805.95 777.615C2810.51 774.895 2812.83 770.855 2812.91 765.495C2812.91 763.335 2812.47 761.335 2811.55 759.415C2810.63 757.495 2809.27 755.895 2807.47 754.575C2805.67 753.255 2803.27 752.215 2800.31 751.415C2797.35 750.615 2793.75 750.215 2789.51 750.215C2787.27 750.215 2784.87 750.295 2782.35 750.495C2779.83 750.695 2776.91 751.015 2773.51 751.495V780.495C2775.27 780.935 2777.39 781.215 2779.87 781.415C2782.35 781.615 2784.79 781.695 2787.15 781.695ZM2841.23 793.015V705.535H2855.79V793.015H2841.23Z" fill="white"/>
<path d="M2915.03 739.215L2939.27 705.535H2955.35L2922.71 748.815L2956.55 793.015H2940.75L2914.63 758.015H2914.27L2888.51 793.015H2872.71L2906.55 748.455L2873.91 705.535H2889.99L2914.63 739.215H2914.99H2915.03Z" fill="white"/>
<path d="M3085.03 705.535V793.015H3070.47V717.775H3049.67C3047.87 729.815 3045.75 740.055 3043.31 748.575C3040.87 757.095 3038.35 764.175 3035.67 769.855C3033.03 775.535 3030.39 780.055 3027.79 783.375C3025.19 786.735 3022.55 789.215 3019.91 790.815C3017.23 792.455 3014.59 793.495 3012.03 793.975C3009.43 794.455 3006.95 794.695 3004.63 794.695C3003.11 794.695 3001.83 794.615 3000.79 794.415V779.575C3001.59 779.695 3002.35 779.775 3003.03 779.775C3005.35 779.855 3007.51 779.575 3009.47 778.935C3011.43 778.335 3013.31 777.215 3015.03 775.655C3016.75 774.095 3018.51 771.695 3020.31 768.415C3022.11 765.175 3023.83 760.775 3025.47 755.295C3027.11 749.815 3028.79 742.975 3030.39 734.855C3032.03 726.735 3033.59 716.935 3035.07 705.455H3084.99L3085.03 705.535Z" fill="white"/>
<path d="M3127.83 753.856V792.976H3113.27V705.496H3127.83V741.576H3146.71C3147.39 735.736 3148.87 730.456 3151.19 725.736C3153.47 721.016 3156.43 716.976 3160.03 713.616C3163.63 710.256 3167.87 707.696 3172.71 705.896C3177.55 704.096 3182.91 703.176 3188.75 703.176C3195.35 703.176 3201.27 704.296 3206.51 706.496C3211.79 708.696 3216.23 711.856 3219.87 715.896C3223.51 719.936 3226.31 724.816 3228.23 730.456C3230.15 736.096 3231.15 742.376 3231.15 749.336C3231.15 756.296 3230.15 762.456 3228.15 768.136C3226.15 773.776 3223.31 778.616 3219.63 782.656C3215.95 786.696 3211.51 789.776 3206.31 792.016C3201.11 794.216 3195.27 795.336 3188.83 795.336C3182.39 795.336 3176.91 794.336 3171.87 792.376C3166.83 790.416 3162.51 787.616 3158.91 784.016C3155.31 780.376 3152.43 776.056 3150.35 770.936C3148.27 765.856 3146.99 760.176 3146.55 753.896H3127.83V753.856ZM3215.95 749.336C3215.95 743.936 3215.27 739.136 3213.95 734.936C3212.59 730.736 3210.75 727.176 3208.35 724.256C3205.95 721.336 3203.11 719.136 3199.79 717.616C3196.47 716.096 3192.87 715.376 3188.95 715.376C3185.03 715.376 3181.43 716.136 3178.11 717.616C3174.83 719.136 3171.95 721.336 3169.55 724.256C3167.15 727.176 3165.27 730.736 3163.95 734.936C3162.63 739.136 3161.95 743.936 3161.95 749.336C3161.95 754.736 3162.63 759.456 3163.95 763.656C3165.27 767.856 3167.19 771.416 3169.59 774.296C3172.03 777.176 3174.87 779.376 3178.19 780.896C3181.47 782.416 3185.11 783.136 3189.03 783.136C3192.95 783.136 3196.55 782.376 3199.83 780.896C3203.11 779.376 3205.95 777.216 3208.31 774.296C3210.71 771.416 3212.59 767.856 3213.91 763.656C3215.23 759.456 3215.91 754.696 3215.91 749.336H3215.95Z" fill="white"/>
<path d="M3321.15 705.535V780.775H3335.71V824.335H3321.15V793.015H3254.67V824.335H3240.11V780.775H3244.83C3249.11 776.295 3252.95 771.575 3256.39 766.575C3259.83 761.615 3262.83 756.095 3265.31 750.095C3267.83 744.095 3269.83 737.415 3271.31 730.135C3272.83 722.815 3273.75 714.655 3274.15 705.535H3321.15ZM3288.71 717.775C3288.03 725.375 3286.83 732.215 3285.15 738.215C3283.47 744.215 3281.35 749.695 3278.83 754.655C3276.31 759.615 3273.43 764.135 3270.23 768.295C3267.03 772.455 3263.51 776.455 3259.67 780.415L3259.31 780.775H3306.51V717.815H3288.63L3288.71 717.775Z" fill="white"/>
<path d="M3400.11 782.856C3404.95 782.856 3409.35 782.456 3413.31 781.696C3417.31 780.936 3421.27 779.856 3425.19 778.416V790.296C3421.99 791.816 3418.03 793.056 3413.35 793.936C3408.67 794.816 3403.59 795.256 3398.23 795.256C3391.83 795.256 3385.83 794.456 3380.23 792.856C3374.63 791.256 3369.75 788.696 3365.67 785.136C3361.59 781.576 3358.35 776.936 3356.03 771.176C3353.71 765.456 3352.55 758.536 3352.55 750.416C3352.55 742.296 3353.67 735.536 3355.91 729.656C3358.15 723.776 3361.15 718.896 3364.91 714.976C3368.67 711.056 3372.99 708.096 3377.87 706.136C3382.75 704.176 3387.83 703.176 3393.15 703.176C3398.15 703.176 3402.83 703.976 3407.19 705.616C3411.55 707.256 3415.31 709.816 3418.51 713.296C3421.71 716.776 3424.23 721.296 3426.07 726.816C3427.91 732.336 3428.83 738.976 3428.83 746.696V748.576C3428.83 749.096 3428.83 750.296 3428.75 752.136H3367.07C3367.07 757.736 3367.95 762.456 3369.67 766.376C3371.39 770.256 3373.75 773.416 3376.71 775.856C3379.67 778.296 3383.19 780.056 3387.19 781.136C3391.19 782.256 3395.51 782.776 3400.15 782.776L3400.11 782.856ZM3392.43 715.456C3389.07 715.456 3385.95 716.096 3383.07 717.376C3380.19 718.656 3377.67 720.416 3375.51 722.616C3373.35 724.816 3371.59 727.416 3370.27 730.416C3368.95 733.376 3368.11 736.576 3367.79 739.936H3413.47C3413.47 736.496 3413.03 733.296 3412.11 730.296C3411.19 727.336 3409.83 724.736 3408.07 722.496C3406.27 720.296 3404.11 718.536 3401.51 717.296C3398.91 716.056 3395.91 715.416 3392.47 715.416L3392.43 715.456Z" fill="white"/>
<path d="M3466.31 792.975H3453.51V705.495H3468.07V753.455C3468.07 762.055 3467.91 768.375 3467.59 772.415H3467.95C3469.71 769.575 3471.83 766.415 3474.35 762.855C3476.87 759.295 3479.59 755.575 3482.51 751.695L3517.87 705.455H3530.67V792.935H3516.11V744.975C3516.11 738.215 3516.27 731.895 3516.59 726.015H3516.23C3514.47 728.855 3512.31 732.015 3509.79 735.575C3507.23 739.135 3504.51 742.855 3501.55 746.735L3466.31 792.935V792.975ZM3493.11 677.055C3497.83 677.055 3501.63 675.535 3504.55 672.535C3507.47 669.535 3509.27 665.215 3509.95 659.655H3523.11C3522.87 663.575 3522.03 667.295 3520.59 670.735C3519.15 674.215 3517.15 677.255 3514.63 679.855C3512.11 682.455 3509.03 684.535 3505.43 686.055C3501.83 687.575 3497.71 688.375 3493.07 688.375C3488.43 688.375 3484.43 687.615 3480.83 686.055C3477.27 684.535 3474.23 682.455 3471.75 679.855C3469.27 677.255 3467.35 674.215 3465.95 670.735C3464.59 667.255 3463.75 663.575 3463.51 659.655H3476.59C3477.27 665.255 3479.03 669.535 3481.79 672.535C3484.59 675.535 3488.35 677.055 3493.11 677.055Z" fill="white"/>
</g>
<defs>
<linearGradient id="paint0_linear_9_19" x1="-44.0098" y1="679.995" x2="792.23" y2="204.105" gradientUnits="userSpaceOnUse">
<stop stop-color="#996526"/>
<stop offset="0.49" stop-color="#FCE78E"/>
<stop offset="1" stop-color="#A97724"/>
</linearGradient>
<linearGradient id="paint1_linear_9_19" x1="246.521" y1="510.405" x2="486.811" y2="373.665" gradientUnits="userSpaceOnUse">
<stop stop-color="#996526"/>
<stop offset="0.49" stop-color="#FCE78E"/>
<stop offset="1" stop-color="#A97724"/>
</linearGradient>
<linearGradient id="paint2_linear_9_19" x1="52.871" y1="624.855" x2="698.041" y2="257.705" gradientUnits="userSpaceOnUse">
<stop stop-color="#996526"/>
<stop offset="0.49" stop-color="#FCE78E"/>
<stop offset="1" stop-color="#A97724"/>
</linearGradient>
<clipPath id="clip0_9_19">
<rect width="758.2" height="875.48" fill="white" transform="translate(0.910156 0.955078)"/>
</clipPath>
<clipPath id="clip1_9_19">
<rect width="2668" height="800" fill="white" transform="translate(891.109 38.6953)"/>
</clipPath>
</defs>
</svg>
