<svg width="2093" height="877" viewBox="0 0 2093 877" fill="none" xmlns="http://www.w3.org/2000/svg">
<g clip-path="url(#clip0_9_19)">
<path d="M751.77 215.585L387.33 5.18508L380 0.955078L372.67 5.18508L8.24014 215.585L0.910156 219.825V657.565L8.24014 661.805L372.68 872.205L380.01 876.435L387.34 872.205L751.78 661.805L759.11 657.565V219.825L751.78 215.585H751.77ZM710.31 629.395L703.93 633.085L386.39 816.415L380 820.105L373.61 816.415L56.0702 633.085L49.6902 629.395V247.995L56.0702 244.305L373.61 60.9751L380 57.2851L386.39 60.9751L703.93 244.305L710.31 247.995V629.405V629.395Z" fill="url(#paint0_linear_9_19)"/>
<path d="M435.911 466.895H330.891L428.381 559.245C411.991 566.895 393.281 570.715 372.301 570.715C348.681 570.715 327.191 565.225 307.781 554.215C288.371 543.215 272.981 527.715 261.571 507.705C250.181 487.695 244.471 464.105 244.471 436.885C244.471 412.095 249.571 390.175 259.761 371.165C269.981 352.175 284.071 337.265 302.081 326.465C320.081 315.665 341.081 310.255 365.081 310.255C391.891 310.255 414.791 316.555 433.801 329.165C452.791 341.775 467.401 358.465 477.611 379.265C487.811 400.085 492.901 423.075 492.901 448.275C492.901 470.595 488.651 490.475 480.111 507.955L435.891 466.885L435.911 466.895Z" fill="url(#paint1_linear_9_19)"/>
<path d="M672.481 269.835V607.555L619.931 637.895L548.351 571.365C558.141 557.635 566.261 542.635 572.741 526.325C583.541 499.135 588.951 469.325 588.951 436.905C588.951 404.485 583.451 374.895 572.441 348.095C561.431 321.285 545.841 298.095 525.641 278.475C505.431 258.875 481.711 243.765 454.521 233.165C427.311 222.585 397.521 217.265 365.101 217.265C332.681 217.265 303.301 222.585 275.681 233.165C248.071 243.765 223.861 258.885 203.071 278.475C182.251 298.095 166.061 321.285 154.471 348.095C142.851 374.905 137.061 404.495 137.061 436.905C137.061 469.315 142.651 499.135 153.851 526.325C165.051 553.545 180.951 577.145 201.561 597.145C222.151 617.155 246.281 632.655 273.891 643.665C301.491 654.645 331.891 660.155 365.101 660.155C398.311 660.155 428.021 654.655 455.411 643.665C469.731 637.905 483.051 630.935 495.351 622.685L552.551 676.815L380.011 776.435L87.541 607.575V269.855L380.011 100.995L672.481 269.855V269.835Z" fill="url(#paint2_linear_9_19)"/>
</g>
<g clip-path="url(#clip1_9_19)">
<path d="M1079 477.73C1083.85 465.63 1086.29 452.62 1086.29 438.69C1086.29 424.76 1083.86 411.52 1079 399.52C1074.14 387.52 1067.32 377.07 1058.52 368.18C1049.72 359.29 1039.41 352.33 1027.59 347.29C1015.77 342.25 1002.8 339.73 988.689 339.73C974.579 339.73 961.839 342.25 949.929 347.29C938.009 352.33 927.659 359.3 918.869 368.18C910.069 377.07 903.239 387.52 898.389 399.52C893.529 411.53 891.109 424.58 891.109 438.69C891.109 452.8 893.539 465.63 898.389 477.73C903.239 489.83 910.069 500.32 918.869 509.21C927.669 518.1 938.019 525.06 949.929 530.1C961.839 535.14 974.759 537.66 988.689 537.66C1002.62 537.66 1015.77 535.14 1027.59 530.1C1035.49 526.73 1042.7 522.49 1049.25 517.4L1066.76 534.91H1097L1064.55 502.46C1070.49 495.14 1075.31 486.89 1078.99 477.73H1079ZM1026.22 504.4C1015.31 511 1002.81 514.3 988.699 514.3C974.589 514.3 962.309 511 951.309 504.4C940.309 497.8 931.649 488.82 925.329 477.46C919.009 466.1 915.849 453.181 915.849 438.701C915.849 424.221 919.009 411.3 925.329 399.94C931.649 388.58 940.309 379.6 951.309 373C962.309 366.4 974.769 363.1 988.699 363.1C1002.63 363.1 1015.32 366.4 1026.22 373C1037.12 379.6 1045.74 388.58 1052.06 399.94C1058.38 411.3 1061.54 424.231 1061.54 438.701C1061.54 453.171 1058.38 466.1 1052.06 477.46C1050.57 480.14 1048.94 482.68 1047.19 485.1L1014.54 452.451H984.299L1032.19 500.34C1030.28 501.77 1028.3 503.15 1026.22 504.41V504.4Z" fill="#FFFBE2"/>
<path d="M1225.38 471.681C1225.38 484.881 1221.81 495.511 1214.66 503.571C1207.51 511.641 1197.07 515.671 1183.32 515.671C1169.57 515.671 1159.13 511.641 1151.98 503.571C1144.83 495.511 1141.26 484.881 1141.26 471.681V342.471H1117.89V471.681C1117.89 481.211 1119.4 490.011 1122.43 498.071C1125.45 506.141 1129.85 513.101 1135.63 518.961C1141.4 524.831 1148.32 529.411 1156.38 532.711C1164.44 536.011 1173.42 537.661 1183.32 537.661C1193.22 537.661 1202.19 536.011 1210.26 532.711C1218.32 529.411 1225.24 524.831 1231.02 518.961C1236.79 513.101 1241.19 506.131 1244.22 498.071C1247.24 490.011 1248.76 481.211 1248.76 471.681V342.471H1225.39V471.681H1225.38Z" fill="#FFFBE2"/>
<path d="M1270.74 534.91H1296.86L1321.27 477.18H1398.79L1423.33 534.91H1449.45L1360.11 332.86L1270.77 534.91H1270.74ZM1389.56 455.19H1330.68L1360.09 385.91L1389.57 455.19H1389.56Z" fill="#FFFBE2"/>
<path d="M1618.49 485.7L1472.79 332.86V534.91H1496.16V391.69L1641.86 544.53V342.48H1618.49V485.7Z" fill="#FFFBE2"/>
<path d="M1666.6 364.47H1716.08V534.91H1739.45V364.47H1788.93V342.48H1666.6V364.47Z" fill="#FFFBE2"/>
<path d="M1826.59 342.48H1813.67V534.91H1826.59H1837.04H1923.63V512.92H1837.04V441.44H1918.13V419.451H1837.04V364.47H1923.63V342.48H1837.04H1826.59Z" fill="#FFFBE2"/>
<path d="M2031.66 434.02L2088.57 342.48H2061.08L2020.12 413.68L1979.98 342.48H1952.49L2008.3 434.02L1945.62 534.91H1973.11L2019.84 454.36L2065.2 534.91H2092.69L2031.66 434.02Z" fill="#FFFBE2"/>
</g>
<defs>
<linearGradient id="paint0_linear_9_19" x1="-44.0098" y1="679.995" x2="792.23" y2="204.105" gradientUnits="userSpaceOnUse">
<stop stop-color="#996526"/>
<stop offset="0.49" stop-color="#FCE78E"/>
<stop offset="1" stop-color="#A97724"/>
</linearGradient>
<linearGradient id="paint1_linear_9_19" x1="246.521" y1="510.405" x2="486.811" y2="373.665" gradientUnits="userSpaceOnUse">
<stop stop-color="#996526"/>
<stop offset="0.49" stop-color="#FCE78E"/>
<stop offset="1" stop-color="#A97724"/>
</linearGradient>
<linearGradient id="paint2_linear_9_19" x1="52.871" y1="624.855" x2="698.041" y2="257.705" gradientUnits="userSpaceOnUse">
<stop stop-color="#996526"/>
<stop offset="0.49" stop-color="#FCE78E"/>
<stop offset="1" stop-color="#A97724"/>
</linearGradient>
<clipPath id="clip0_9_19">
<rect width="758.2" height="875.48" fill="white" transform="translate(0.910156 0.955078)"/>
</clipPath>
<clipPath id="clip1_9_19">
<rect width="1201.58" height="211.67" fill="white" transform="translate(891.109 332.86)"/>
</clipPath>
</defs>
</svg>
