<svg width="667" height="200" viewBox="0 0 667 200" fill="none" xmlns="http://www.w3.org/2000/svg">
<path d="M96.58 94.49L112.85 111.78H94.36L85.27 102.26C75.43 106.75 66.08 108.99 57.23 108.99C41.31 108.99 27.79 103.66 16.67 92.99C5.55001 82.32 0 69.4 0 54.22C0 39.04 5.61999 27.02 16.86 16.57C28.1 6.12001 41.64 0.890015 57.49 0.890015C73.34 0.890015 86.48 6.08999 97.71 16.49C108.95 26.89 114.56 39.31 114.56 53.74C114.56 70.08 108.57 83.67 96.58 94.49ZM74.62 91.09L51.86 67.24H70.35L86.32 83.97C95.1 75.74 99.5 65.99 99.5 54.73C99.5 43.47 95.4 34.11 87.2 26.49C79 18.87 68.82 15.06 56.67 15.06C44.52 15.06 35.27 18.93 27.15 26.68C19.03 34.43 14.98 43.82 14.98 54.85C14.98 65.88 19.13 75.25 27.43 82.94C35.73 90.63 45.85 94.48 57.78 94.48C62.77 94.48 68.38 93.35 74.62 91.08V91.09Z" fill="white"/>
<path d="M132.56 4.22998H146.73V66.6099C146.73 75.8499 149 82.99 153.53 88.04C158.06 93.09 164.48 95.6099 172.79 95.6099C181.1 95.6099 187.46 93.29 192.05 88.64C196.64 83.99 198.93 77.4499 198.93 68.9999V4.22998H213.1V68.04C213.1 80.47 209.48 90.4 202.23 97.83C194.98 105.27 185.34 108.98 173.28 108.98C161.22 108.98 151.09 105.21 143.68 97.67C136.27 90.13 132.57 79 132.57 64.29V4.21997L132.56 4.22998Z" fill="white"/>
<path d="M272.48 0.160034L321.46 105.56H306.61L294.57 79.59H250.55L238.65 105.56H223.91L272.48 0.160034ZM272.44 31.84L255.85 68.04H289.22L272.45 31.84H272.44Z" fill="white"/>
<path d="M333.67 0L410.37 77.14V4.07001H424.54V110.26L347.84 33.47V105.56H333.67V0.0100098V0Z" fill="white"/>
<path d="M439.36 4.07007H502.79V17.9301H478.04V105.56H464.04V17.9301H439.37V4.07007H439.36Z" fill="white"/>
<path d="M517.61 4.07007H575.09V17.9301H531.61V43.2601H575.09V56.9601H531.61V91.8501H575.09V105.55H517.61V4.06006V4.07007Z" fill="white"/>
<path d="M587.8 4.07007H603.4L626.59 41.0801L649.51 4.07007H665.32L634.5 53.8401L666.22 105.56H650.52L626.62 66.5701L602.47 105.56H586.66L618.72 53.7901L587.8 4.07007Z" fill="white"/>
<path d="M0.0900879 166.71H3.7301L10.6701 183.86H10.8101L17.9301 166.71H21.5701L7.74008 199.28H4.12009L8.89008 188.14L0.0800781 166.71H0.0900879Z" fill="white"/>
<path d="M36.72 188.57L32.47 178.1C31.57 175.91 30.64 173.56 29.69 171.06H29.48C29.59 172.89 29.65 175.21 29.65 178.03V188.57H26.01V166.7H31.17L35.18 176.64C36.14 178.99 36.98 181.18 37.7 183.22H37.87C38.64 181.12 39.48 178.92 40.39 176.64L44.42 166.7H49.58V188.57H45.94V178.03C45.94 175.51 45.99 173.19 46.11 171.06H45.9C45.24 172.81 44.32 175.16 43.12 178.1L38.87 188.57H36.75H36.72Z" fill="white"/>
<path d="M71.4501 188.57V178.79H60.1901V188.57H56.55V166.7H60.1901V175.72H71.4501V166.7H75.0901V188.57H71.4501Z" fill="white"/>
<path d="M85.7902 166.71V175.13C86.4802 175.04 87.1901 174.97 87.9301 174.91C88.6701 174.86 89.3301 174.83 89.9301 174.83C91.6501 174.83 93.1201 175.01 94.3301 175.36C95.5401 175.71 96.5202 176.2 97.2802 176.81C98.0402 177.42 98.5902 178.14 98.9402 178.96C99.2802 179.78 99.4601 180.67 99.4601 181.62C99.4601 182.83 99.2002 183.89 98.6702 184.8C98.1402 185.71 97.4202 186.45 96.4802 187.03C95.5402 187.61 94.4401 188.05 93.1401 188.34C91.8501 188.63 90.4201 188.78 88.8701 188.78C87.5201 188.78 86.2901 188.71 85.1801 188.56C84.0701 188.41 83.0601 188.2 82.1501 187.93V166.71H85.7902ZM89.2002 185.75C91.1902 185.75 92.7601 185.41 93.9001 184.73C95.0401 184.05 95.6201 183.04 95.6401 181.7C95.6401 181.16 95.5301 180.66 95.3001 180.18C95.0701 179.7 94.7302 179.3 94.2802 178.97C93.8302 178.64 93.2301 178.38 92.4901 178.18C91.7501 177.98 90.8502 177.88 89.7902 177.88C89.2302 177.88 88.6302 177.9 88.0002 177.95C87.3702 178 86.6402 178.08 85.7902 178.2V185.45C86.2302 185.56 86.7602 185.63 87.3802 185.68C88.0002 185.73 88.6102 185.75 89.2002 185.75ZM102.72 188.58V166.71H106.36V188.58H102.72Z" fill="white"/>
<path d="M116.61 188.57H113.41V166.7H117.05V178.69C117.05 180.84 117.01 182.42 116.93 183.43H117.02C117.46 182.72 117.99 181.93 118.62 181.04C119.25 180.15 119.93 179.22 120.66 178.25L129.5 166.69H132.7V188.56H129.06V176.57C129.06 174.88 129.1 173.3 129.18 171.83H129.09C128.65 172.54 128.11 173.33 127.48 174.22C126.84 175.11 126.16 176.04 125.42 177.01L116.61 188.56V188.57ZM123.31 159.59C124.49 159.59 125.44 159.21 126.17 158.46C126.9 157.71 127.35 156.63 127.52 155.24H130.81C130.75 156.22 130.54 157.15 130.18 158.01C129.82 158.88 129.32 159.64 128.69 160.29C128.06 160.94 127.29 161.46 126.39 161.84C125.49 162.22 124.46 162.42 123.3 162.42C122.14 162.42 121.14 162.23 120.24 161.84C119.35 161.46 118.59 160.94 117.97 160.29C117.35 159.64 116.87 158.88 116.52 158.01C116.18 157.14 115.97 156.22 115.91 155.24H119.18C119.35 156.64 119.79 157.71 120.48 158.46C121.18 159.21 122.12 159.59 123.31 159.59Z" fill="white"/>
<path d="M158.99 166.13C160.07 166.13 161.11 166.24 162.09 166.46C163.08 166.68 163.92 166.99 164.63 167.39V170.36C163.64 169.99 162.73 169.72 161.9 169.53C161.07 169.35 160.22 169.25 159.36 169.25C158.45 169.25 157.55 169.4 156.66 169.69C155.77 169.98 154.97 170.46 154.26 171.13C153.55 171.8 152.99 172.68 152.56 173.78C152.13 174.88 151.91 176.24 151.91 177.87C151.91 179.05 152.07 180.14 152.39 181.14C152.71 182.14 153.19 183 153.82 183.73C154.46 184.46 155.25 185.03 156.21 185.43C157.17 185.84 158.27 186.04 159.52 186.04C160.43 186.04 161.35 185.94 162.27 185.75C163.2 185.56 164.1 185.29 164.97 184.93V187.9C164.7 188.05 164.35 188.21 163.92 188.36C163.49 188.51 163.01 188.65 162.5 188.76C161.98 188.87 161.43 188.97 160.86 189.04C160.28 189.11 159.7 189.14 159.12 189.14C157.62 189.14 156.19 188.92 154.85 188.47C153.51 188.03 152.34 187.34 151.34 186.42C150.34 185.5 149.55 184.33 148.97 182.92C148.39 181.51 148.1 179.84 148.1 177.9C148.1 176.46 148.25 175.16 148.56 174.01C148.87 172.86 149.28 171.85 149.82 170.97C150.35 170.1 150.97 169.35 151.69 168.74C152.4 168.13 153.16 167.62 153.97 167.23C154.78 166.84 155.61 166.55 156.47 166.38C157.33 166.2 158.17 166.12 158.99 166.12V166.13Z" fill="white"/>
<path d="M181.11 186.04C182.32 186.04 183.42 185.94 184.41 185.75C185.41 185.56 186.4 185.29 187.38 184.93V187.9C186.58 188.28 185.59 188.59 184.42 188.81C183.25 189.03 181.98 189.14 180.64 189.14C179.04 189.14 177.54 188.94 176.14 188.54C174.74 188.14 173.52 187.5 172.5 186.61C171.48 185.72 170.67 184.56 170.09 183.12C169.51 181.69 169.22 179.96 169.22 177.93C169.22 175.9 169.5 174.21 170.06 172.74C170.62 171.27 171.37 170.05 172.31 169.07C173.25 168.09 174.33 167.35 175.55 166.86C176.77 166.37 178.04 166.12 179.37 166.12C180.62 166.12 181.79 166.32 182.88 166.73C183.97 167.14 184.91 167.78 185.71 168.65C186.51 169.52 187.14 170.65 187.6 172.03C188.06 173.41 188.29 175.07 188.29 177V177.47C188.29 177.6 188.29 177.9 188.27 178.36H172.85C172.85 179.76 173.07 180.94 173.5 181.92C173.93 182.89 174.52 183.68 175.26 184.29C176 184.9 176.88 185.34 177.88 185.61C178.88 185.89 179.96 186.02 181.12 186.02L181.11 186.04ZM179.19 169.19C178.35 169.19 177.57 169.35 176.85 169.67C176.13 169.99 175.5 170.43 174.96 170.98C174.42 171.53 173.98 172.18 173.65 172.93C173.32 173.67 173.11 174.47 173.03 175.31H184.45C184.45 174.45 184.34 173.65 184.11 172.9C183.88 172.16 183.54 171.51 183.1 170.95C182.65 170.4 182.11 169.96 181.46 169.65C180.81 169.34 180.06 169.18 179.2 169.18L179.19 169.19Z" fill="white"/>
<path d="M214.26 177.39C214.26 178.91 214.11 180.26 213.8 181.43C213.49 182.6 213.09 183.63 212.59 184.5C212.09 185.37 211.5 186.11 210.82 186.7C210.14 187.29 209.44 187.77 208.72 188.13C208 188.49 207.26 188.75 206.51 188.91C205.76 189.07 205.06 189.15 204.4 189.15C203.03 189.15 201.84 188.93 200.84 188.49C199.83 188.05 198.93 187.4 198.12 186.54H198.05V199.27H194.48V166.7H197.23L198.01 169.19H198.08C198.28 168.88 198.55 168.58 198.87 168.29C199.19 168 199.62 167.69 200.16 167.36C200.7 167.03 201.35 166.74 202.11 166.5C202.87 166.25 203.7 166.13 204.59 166.13C205.84 166.13 207.05 166.34 208.22 166.75C209.39 167.16 210.42 167.82 211.31 168.73C212.2 169.64 212.92 170.8 213.46 172.22C214 173.64 214.27 175.36 214.27 177.39H214.26ZM210.45 177.44C210.45 176.17 210.31 175.02 210.04 174.01C209.77 173 209.35 172.13 208.8 171.42C208.25 170.71 207.57 170.16 206.77 169.77C205.97 169.39 205.04 169.19 203.98 169.19C203.22 169.19 202.53 169.29 201.91 169.49C201.29 169.69 200.72 169.94 200.22 170.25C199.72 170.56 199.28 170.89 198.92 171.24C198.56 171.59 198.27 171.91 198.05 172.18V183.62C198.82 184.39 199.7 184.99 200.69 185.44C201.68 185.89 202.73 186.11 203.87 186.11C204.56 186.11 205.3 185.98 206.07 185.73C206.84 185.48 207.55 185.02 208.21 184.37C208.87 183.72 209.4 182.83 209.83 181.71C210.26 180.59 210.47 179.16 210.47 177.43L210.45 177.44Z" fill="white"/>
<path d="M233.49 177.2C234.02 177.25 234.55 177.38 235.08 177.6C235.61 177.82 236.08 178.13 236.49 178.53C236.9 178.93 237.24 179.43 237.5 180.03C237.76 180.63 237.89 181.33 237.89 182.12C237.89 183.45 237.5 184.64 236.73 185.68C235.95 186.72 234.8 187.49 233.26 187.99C232.68 188.17 232 188.32 231.23 188.42C230.45 188.52 229.55 188.57 228.51 188.57H220.02V166.7H228.98C229.97 166.7 230.81 166.75 231.52 166.85C232.23 166.95 232.85 167.09 233.38 167.28C234.65 167.73 235.61 168.4 236.26 169.29C236.91 170.19 237.24 171.22 237.24 172.39C237.24 173.08 237.13 173.69 236.92 174.22C236.71 174.75 236.43 175.2 236.09 175.58C235.74 175.96 235.35 176.27 234.89 176.52C234.44 176.77 233.97 176.97 233.5 177.11V177.2H233.49ZM229.28 175.75C230.2 175.75 230.89 175.68 231.38 175.54C232.08 175.33 232.59 174.98 232.93 174.5C233.26 174.02 233.43 173.44 233.43 172.75C233.43 171.54 232.92 170.69 231.92 170.2C231.3 169.88 230.32 169.72 228.99 169.72H223.68V175.75H229.29H229.28ZM228.51 185.56C229.35 185.56 230.06 185.52 230.64 185.45C231.22 185.38 231.71 185.26 232.12 185.1C232.83 184.82 233.34 184.44 233.63 183.94C233.92 183.44 234.07 182.85 234.07 182.18C234.07 181.4 233.87 180.75 233.46 180.22C233.06 179.7 232.5 179.31 231.78 179.07C231.19 178.87 230.37 178.77 229.33 178.77H223.65V185.56H228.5H228.51Z" fill="white"/>
<path d="M246.84 188.57H243.64V166.7H247.28V178.69C247.28 180.84 247.24 182.42 247.16 183.43H247.25C247.69 182.72 248.22 181.93 248.85 181.04C249.48 180.15 250.16 179.22 250.89 178.25L259.73 166.69H262.93V188.56H259.29V176.57C259.29 174.88 259.33 173.3 259.41 171.83H259.32C258.88 172.54 258.34 173.33 257.71 174.22C257.07 175.11 256.39 176.04 255.65 177.01L246.84 188.56V188.57Z" fill="white"/>
<path d="M279.58 166.13C280.66 166.13 281.7 166.24 282.68 166.46C283.67 166.68 284.51 166.99 285.22 167.39V170.36C284.23 169.99 283.32 169.72 282.49 169.53C281.66 169.35 280.81 169.25 279.95 169.25C279.04 169.25 278.14 169.4 277.25 169.69C276.36 169.98 275.56 170.46 274.85 171.13C274.14 171.8 273.58 172.68 273.15 173.78C272.72 174.88 272.5 176.24 272.5 177.87C272.5 179.05 272.66 180.14 272.98 181.14C273.3 182.14 273.78 183 274.41 183.73C275.05 184.46 275.84 185.03 276.8 185.43C277.76 185.84 278.86 186.04 280.11 186.04C281.02 186.04 281.94 185.94 282.86 185.75C283.79 185.56 284.69 185.29 285.56 184.93V187.9C285.29 188.05 284.94 188.21 284.51 188.36C284.08 188.51 283.6 188.65 283.09 188.76C282.57 188.87 282.02 188.97 281.45 189.04C280.87 189.11 280.29 189.14 279.71 189.14C278.21 189.14 276.78 188.92 275.44 188.47C274.1 188.03 272.93 187.34 271.93 186.42C270.93 185.5 270.14 184.33 269.56 182.92C268.98 181.51 268.69 179.84 268.69 177.9C268.69 176.46 268.84 175.16 269.15 174.01C269.46 172.86 269.87 171.85 270.41 170.97C270.94 170.1 271.56 169.35 272.28 168.74C272.99 168.13 273.75 167.62 274.56 167.23C275.37 166.84 276.2 166.55 277.06 166.38C277.92 166.2 278.76 166.12 279.58 166.12V166.13Z" fill="white"/>
<path d="M318.65 166.71V185.52H322.29V196.41H318.65V188.58H302.03V196.41H298.39V185.52H299.57C300.64 184.4 301.6 183.22 302.46 181.97C303.32 180.73 304.07 179.35 304.69 177.85C305.32 176.35 305.82 174.68 306.19 172.86C306.57 171.03 306.8 168.99 306.9 166.71H318.65ZM310.54 169.77C310.37 171.67 310.07 173.38 309.65 174.88C309.23 176.38 308.7 177.75 308.07 178.99C307.44 180.23 306.72 181.36 305.92 182.4C305.12 183.44 304.24 184.44 303.28 185.43L303.19 185.52H314.99V169.78H310.52L310.54 169.77Z" fill="white"/>
<path d="M346.98 166.71V188.58H343.34V169.77H338.14C337.69 172.78 337.16 175.34 336.55 177.47C335.94 179.6 335.31 181.37 334.64 182.79C333.98 184.21 333.32 185.34 332.67 186.17C332.02 187.01 331.36 187.63 330.7 188.03C330.03 188.44 329.37 188.7 328.73 188.82C328.08 188.94 327.46 189 326.88 189C326.5 189 326.18 188.98 325.92 188.93V185.22C326.12 185.25 326.31 185.27 326.48 185.27C327.06 185.29 327.6 185.22 328.09 185.06C328.58 184.91 329.05 184.63 329.48 184.24C329.91 183.85 330.35 183.25 330.8 182.43C331.25 181.62 331.68 180.52 332.09 179.15C332.5 177.78 332.92 176.07 333.32 174.04C333.73 172.01 334.12 169.56 334.49 166.69H346.97L346.98 166.71Z" fill="white"/>
<path d="M353.63 173.79C353.63 172.42 353.97 171.18 354.66 170.06C355.35 168.94 356.39 168.08 357.79 167.48C358.38 167.22 359.08 167.02 359.87 166.89C360.66 166.76 361.62 166.69 362.75 166.69H371.02V188.56H367.38V180.02H361.74L356.5 188.56H352.86L358.1 179.54C357.39 179.37 356.77 179.11 356.22 178.75C355.67 178.39 355.21 177.96 354.82 177.46C354.44 176.96 354.14 176.4 353.94 175.77C353.74 175.14 353.63 174.48 353.63 173.79ZM362.84 169.76C362.09 169.76 361.45 169.79 360.94 169.86C360.42 169.93 359.96 170.06 359.55 170.24C358.89 170.53 358.38 170.96 358 171.52C357.62 172.08 357.44 172.78 357.44 173.63C357.44 174.26 357.55 174.79 357.77 175.23C357.99 175.67 358.31 176.02 358.72 176.29C359.14 176.56 359.64 176.75 360.22 176.88C360.8 177.01 361.47 177.06 362.21 177.06H367.38V169.76H362.84Z" fill="white"/>
<path d="M384.89 166.71H388.53L395.47 183.86H395.61L402.73 166.71H406.37L392.54 199.28H388.92L393.69 188.14L384.88 166.71H384.89Z" fill="white"/>
<path d="M421.53 188.57L417.28 178.1C416.38 175.91 415.45 173.56 414.5 171.06H414.29C414.4 172.89 414.46 175.21 414.46 178.03V188.57H410.82V166.7H415.98L419.99 176.64C420.95 178.99 421.79 181.18 422.51 183.22H422.68C423.45 181.12 424.29 178.92 425.2 176.64L429.23 166.7H434.39V188.57H430.75V178.03C430.75 175.51 430.8 173.19 430.92 171.06H430.71C430.05 172.81 429.13 175.16 427.93 178.1L423.68 188.57H421.56H421.53Z" fill="white"/>
<path d="M456.26 188.57V178.79H445V188.57H441.36V166.7H445V175.72H456.26V166.7H459.9V188.57H456.26Z" fill="white"/>
<path d="M470.6 166.71V175.13C471.29 175.04 472 174.97 472.74 174.91C473.48 174.86 474.14 174.83 474.74 174.83C476.46 174.83 477.93 175.01 479.14 175.36C480.35 175.71 481.33 176.2 482.09 176.81C482.85 177.42 483.4 178.14 483.75 178.96C484.09 179.78 484.27 180.67 484.27 181.62C484.27 182.83 484.01 183.89 483.48 184.8C482.95 185.71 482.23 186.45 481.29 187.03C480.35 187.61 479.25 188.05 477.95 188.34C476.66 188.63 475.23 188.78 473.68 188.78C472.33 188.78 471.1 188.71 469.99 188.56C468.88 188.41 467.87 188.2 466.96 187.93V166.71H470.6ZM474.01 185.75C476 185.75 477.57 185.41 478.71 184.73C479.85 184.05 480.43 183.04 480.45 181.7C480.45 181.16 480.34 180.66 480.11 180.18C479.88 179.7 479.54 179.3 479.09 178.97C478.64 178.64 478.04 178.38 477.3 178.18C476.56 177.98 475.66 177.88 474.6 177.88C474.04 177.88 473.44 177.9 472.81 177.95C472.18 178 471.45 178.08 470.6 178.2V185.45C471.04 185.56 471.57 185.63 472.19 185.68C472.81 185.73 473.42 185.75 474.01 185.75ZM487.53 188.58V166.71H491.17V188.58H487.53Z" fill="white"/>
<path d="M505.98 175.13L512.04 166.71H516.06L507.9 177.53L516.36 188.58H512.41L505.88 179.83H505.79L499.35 188.58H495.4L503.86 177.44L495.7 166.71H499.72L505.88 175.13H505.97H505.98Z" fill="white"/>
<path d="M548.48 166.71V188.58H544.84V169.77H539.64C539.19 172.78 538.66 175.34 538.05 177.47C537.44 179.6 536.81 181.37 536.14 182.79C535.48 184.21 534.82 185.34 534.17 186.17C533.52 187.01 532.86 187.63 532.2 188.03C531.53 188.44 530.87 188.7 530.23 188.82C529.58 188.94 528.96 189 528.38 189C528 189 527.68 188.98 527.42 188.93V185.22C527.62 185.25 527.81 185.27 527.98 185.27C528.56 185.29 529.1 185.22 529.59 185.06C530.08 184.91 530.55 184.63 530.98 184.24C531.41 183.85 531.85 183.25 532.3 182.43C532.75 181.62 533.18 180.52 533.59 179.15C534 177.78 534.42 176.07 534.82 174.04C535.23 172.01 535.62 169.56 535.99 166.69H548.47L548.48 166.71Z" fill="white"/>
<path d="M559.18 178.79V188.57H555.54V166.7H559.18V175.72H563.9C564.07 174.26 564.44 172.94 565.02 171.76C565.59 170.58 566.33 169.57 567.23 168.73C568.13 167.89 569.19 167.25 570.4 166.8C571.61 166.35 572.95 166.12 574.41 166.12C576.06 166.12 577.54 166.4 578.85 166.95C580.17 167.5 581.28 168.29 582.19 169.3C583.1 170.31 583.8 171.53 584.28 172.94C584.76 174.35 585.01 175.92 585.01 177.66C585.01 179.4 584.76 180.94 584.26 182.36C583.76 183.77 583.05 184.98 582.13 185.99C581.21 187 580.1 187.77 578.8 188.33C577.5 188.88 576.04 189.16 574.43 189.16C572.82 189.16 571.45 188.91 570.19 188.42C568.93 187.93 567.85 187.23 566.95 186.33C566.05 185.42 565.33 184.34 564.81 183.06C564.29 181.79 563.97 180.37 563.86 178.8H559.18V178.79ZM581.21 177.66C581.21 176.31 581.04 175.11 580.71 174.06C580.37 173.01 579.91 172.12 579.31 171.39C578.71 170.66 578 170.11 577.17 169.73C576.34 169.35 575.44 169.17 574.46 169.17C573.48 169.17 572.58 169.36 571.75 169.73C570.93 170.11 570.21 170.66 569.61 171.39C569.01 172.12 568.54 173.01 568.21 174.06C567.88 175.11 567.71 176.31 567.71 177.66C567.71 179.01 567.88 180.19 568.21 181.24C568.54 182.29 569.02 183.18 569.62 183.9C570.23 184.62 570.94 185.17 571.77 185.55C572.59 185.93 573.5 186.11 574.48 186.11C575.46 186.11 576.36 185.92 577.18 185.55C578 185.17 578.71 184.63 579.3 183.9C579.9 183.18 580.37 182.29 580.7 181.24C581.03 180.19 581.2 179 581.2 177.66H581.21Z" fill="white"/>
<path d="M607.51 166.71V185.52H611.15V196.41H607.51V188.58H590.89V196.41H587.25V185.52H588.43C589.5 184.4 590.46 183.22 591.32 181.97C592.18 180.73 592.93 179.35 593.55 177.85C594.18 176.35 594.68 174.68 595.05 172.86C595.43 171.03 595.66 168.99 595.76 166.71H607.51ZM599.4 169.77C599.23 171.67 598.93 173.38 598.51 174.88C598.09 176.38 597.56 177.75 596.93 178.99C596.3 180.23 595.58 181.36 594.78 182.4C593.98 183.44 593.1 184.44 592.14 185.43L592.05 185.52H603.85V169.78H599.38L599.4 169.77Z" fill="white"/>
<path d="M627.25 186.04C628.46 186.04 629.56 185.94 630.55 185.75C631.55 185.56 632.54 185.29 633.52 184.93V187.9C632.72 188.28 631.73 188.59 630.56 188.81C629.39 189.03 628.12 189.14 626.78 189.14C625.18 189.14 623.68 188.94 622.28 188.54C620.88 188.14 619.66 187.5 618.64 186.61C617.62 185.72 616.81 184.56 616.23 183.12C615.65 181.69 615.36 179.96 615.36 177.93C615.36 175.9 615.64 174.21 616.2 172.74C616.76 171.27 617.51 170.05 618.45 169.07C619.39 168.09 620.47 167.35 621.69 166.86C622.91 166.37 624.18 166.12 625.51 166.12C626.76 166.12 627.93 166.32 629.02 166.73C630.11 167.14 631.05 167.78 631.85 168.65C632.65 169.52 633.28 170.65 633.74 172.03C634.2 173.41 634.43 175.07 634.43 177V177.47C634.43 177.6 634.43 177.9 634.41 178.36H618.99C618.99 179.76 619.21 180.94 619.64 181.92C620.07 182.89 620.66 183.68 621.4 184.29C622.14 184.9 623.02 185.34 624.02 185.61C625.02 185.89 626.1 186.02 627.26 186.02L627.25 186.04ZM625.33 169.19C624.49 169.19 623.71 169.35 622.99 169.67C622.27 169.99 621.64 170.43 621.1 170.98C620.56 171.53 620.12 172.18 619.79 172.93C619.46 173.67 619.25 174.47 619.17 175.31H630.59C630.59 174.45 630.48 173.65 630.25 172.9C630.02 172.16 629.68 171.51 629.24 170.95C628.79 170.4 628.25 169.96 627.6 169.65C626.95 169.34 626.2 169.18 625.34 169.18L625.33 169.19Z" fill="white"/>
<path d="M643.8 188.57H640.6V166.7H644.24V178.69C644.24 180.84 644.2 182.42 644.12 183.43H644.21C644.65 182.72 645.18 181.93 645.81 181.04C646.44 180.15 647.12 179.22 647.85 178.25L656.69 166.69H659.89V188.56H656.25V176.57C656.25 174.88 656.29 173.3 656.37 171.83H656.28C655.84 172.54 655.3 173.33 654.67 174.22C654.03 175.11 653.35 176.04 652.61 177.01L643.8 188.56V188.57ZM650.5 159.59C651.68 159.59 652.63 159.21 653.36 158.46C654.09 157.71 654.54 156.63 654.71 155.24H658C657.94 156.22 657.73 157.15 657.37 158.01C657.01 158.88 656.51 159.64 655.88 160.29C655.25 160.94 654.48 161.46 653.58 161.84C652.68 162.22 651.65 162.42 650.49 162.42C649.33 162.42 648.33 162.23 647.43 161.84C646.54 161.46 645.78 160.94 645.16 160.29C644.54 159.64 644.06 158.88 643.71 158.01C643.37 157.14 643.16 156.22 643.1 155.24H646.37C646.54 156.64 646.98 157.71 647.67 158.46C648.37 159.21 649.31 159.59 650.5 159.59Z" fill="white"/>
</svg>
