<?xml version="1.0" encoding="UTF-8"?>
<svg id="_Слой_2" data-name="Слой 2" xmlns="http://www.w3.org/2000/svg" xmlns:xlink="http://www.w3.org/1999/xlink" viewBox="0 0 1201.59 1219.39">
  <defs>
    <style>
      .cls-1 {
        fill: url(#_Безымянный_градиент_7);
      }

      .cls-2 {
        fill: url(#_Безымянный_градиент_7-3);
      }

      .cls-3 {
        fill: url(#_Безымянный_градиент_7-2);
      }

      .cls-4 {
        fill: #fffbe2;
      }
    </style>
    <linearGradient id="_Безымянный_градиент_7" data-name="Безымянный градиент 7" x1="179.68" y1="679.04" x2="1015.92" y2="203.15" gradientUnits="userSpaceOnUse">
      <stop offset="0" stop-color="#996526"/>
      <stop offset=".49" stop-color="#fce78e"/>
      <stop offset="1" stop-color="#a97724"/>
    </linearGradient>
    <linearGradient id="_Безымянный_градиент_7-2" data-name="Безымянный градиент 7" x1="470.21" y1="509.45" x2="710.5" y2="372.71" xlink:href="#_Безымянный_градиент_7"/>
    <linearGradient id="_Безымянный_градиент_7-3" data-name="Безымянный градиент 7" x1="276.56" y1="623.9" x2="921.73" y2="256.75" xlink:href="#_Безымянный_градиент_7"/>
  </defs>
  <g id="_Слой_1-2" data-name="Слой 1">
    <g>
      <path class="cls-4" d="M187.9,1152.59c4.85-12.1,7.29-25.11,7.29-39.04s-2.43-27.17-7.29-39.17c-4.86-12-11.68-22.45-20.48-31.34-8.8-8.89-19.11-15.85-30.93-20.89-11.82-5.04-24.79-7.56-38.9-7.56s-26.85,2.52-38.76,7.56c-11.92,5.04-22.27,12.01-31.06,20.89-8.8,8.89-15.63,19.34-20.48,31.34-4.86,12.01-7.28,25.06-7.28,39.17s2.43,26.94,7.28,39.04c4.85,12.1,11.68,22.59,20.48,31.48,8.8,8.89,19.15,15.85,31.06,20.89,11.91,5.04,24.83,7.56,38.76,7.56s27.08-2.52,38.9-7.56c7.9-3.37,15.11-7.61,21.66-12.7l17.51,17.51h30.24l-32.45-32.45c5.94-7.32,10.76-15.57,14.44-24.73ZM135.12,1179.26c-10.91,6.6-23.41,9.9-37.52,9.9s-26.39-3.3-37.39-9.9c-11-6.6-19.66-15.58-25.98-26.94-6.32-11.36-9.48-24.28-9.48-38.76s3.16-27.4,9.48-38.76c6.32-11.36,14.98-20.34,25.98-26.94,11-6.6,23.46-9.9,37.39-9.9s26.62,3.3,37.52,9.9c10.9,6.6,19.52,15.58,25.84,26.94,6.32,11.36,9.48,24.29,9.48,38.76s-3.16,27.4-9.48,38.76c-1.49,2.68-3.12,5.22-4.87,7.64l-32.65-32.65h-30.24l47.89,47.89c-1.91,1.43-3.89,2.81-5.97,4.07Z"/>
      <path class="cls-4" d="M334.28,1146.54c0,13.2-3.57,23.83-10.72,31.89-7.15,8.07-17.59,12.1-31.34,12.1s-24.19-4.03-31.34-12.1c-7.15-8.06-10.72-18.69-10.72-31.89v-129.21h-23.37v129.21c0,9.53,1.51,18.33,4.54,26.39,3.02,8.07,7.42,15.03,13.2,20.89,5.77,5.87,12.69,10.45,20.75,13.75,8.06,3.3,17.04,4.95,26.94,4.95s18.87-1.65,26.94-4.95c8.06-3.3,14.98-7.88,20.76-13.75,5.77-5.86,10.17-12.83,13.2-20.89,3.02-8.06,4.54-16.86,4.54-26.39v-129.21h-23.37v129.21Z"/>
      <path class="cls-4" d="M379.64,1209.77h26.12l24.41-57.73h77.52l24.54,57.73h26.12l-89.34-202.05-89.34,202.05ZM498.46,1130.05h-58.88l29.41-69.28,29.48,69.28Z"/>
      <polygon class="cls-4" points="727.39 1160.56 581.69 1007.72 581.69 1209.77 605.06 1209.77 605.06 1066.55 750.76 1219.39 750.76 1017.34 727.39 1017.34 727.39 1160.56"/>
      <polygon class="cls-4" points="775.5 1039.33 824.98 1039.33 824.98 1209.77 848.35 1209.77 848.35 1039.33 897.83 1039.33 897.83 1017.34 775.5 1017.34 775.5 1039.33"/>
      <polygon class="cls-4" points="935.49 1017.34 922.57 1017.34 922.57 1209.77 935.49 1209.77 945.94 1209.77 1032.53 1209.77 1032.53 1187.78 945.94 1187.78 945.94 1116.3 1027.03 1116.3 1027.03 1094.31 945.94 1094.31 945.94 1039.33 1032.53 1039.33 1032.53 1017.34 945.94 1017.34 935.49 1017.34"/>
      <polygon class="cls-4" points="1140.56 1108.88 1197.47 1017.34 1169.98 1017.34 1129.02 1088.54 1088.88 1017.34 1061.39 1017.34 1117.2 1108.88 1054.52 1209.77 1082.01 1209.77 1128.74 1129.22 1174.1 1209.77 1201.59 1209.77 1140.56 1108.88"/>
    </g>
    <g>
      <path class="cls-1" d="M975.46,214.63L611.02,4.23l-7.33-4.23-7.33,4.23L231.93,214.63l-7.33,4.24v437.74l7.33,4.24,364.44,210.4,7.33,4.23,7.33-4.23,364.44-210.4,7.33-4.24V218.87l-7.33-4.24ZM934,628.44l-6.38,3.69-317.54,183.33-6.39,3.69-6.39-3.69-317.54-183.33-6.38-3.69V247.04l6.38-3.69L597.3,60.02l6.39-3.69,6.39,3.69,317.54,183.33,6.38,3.69v381.41Z"/>
      <path class="cls-3" d="M659.6,465.94h-105.02l97.49,92.35c-16.39,7.65-35.1,11.47-56.08,11.47-23.62,0-45.11-5.49-64.52-16.5-19.41-11-34.8-26.5-46.21-46.51-11.39-20.01-17.1-43.6-17.1-70.82,0-24.79,5.1-46.71,15.29-65.72,10.22-18.99,24.31-33.9,42.32-44.7,18-10.8,39-16.21,63-16.21,26.81,0,49.71,6.3,68.72,18.91,18.99,12.61,33.6,29.3,43.81,50.1,10.2,20.82,15.29,43.81,15.29,69.01,0,22.32-4.25,42.2-12.79,59.68l-44.22-41.07Z"/>
      <path class="cls-2" d="M896.17,268.88v337.72l-52.55,30.34-71.58-66.53c9.79-13.73,17.91-28.73,24.39-45.04,10.8-27.19,16.21-57,16.21-89.42s-5.5-62.01-16.51-88.81c-11.01-26.81-26.6-50-46.8-69.62-20.21-19.6-43.93-34.71-71.12-45.31-27.21-10.58-57-15.9-89.42-15.9s-61.8,5.32-89.42,15.9c-27.61,10.6-51.82,25.72-72.61,45.31-20.82,19.62-37.01,42.81-48.6,69.62-11.62,26.81-17.41,56.4-17.41,88.81s5.59,62.23,16.79,89.42c11.2,27.22,27.1,50.82,47.71,70.82,20.59,20.01,44.72,35.51,72.33,46.52,27.6,10.98,58,16.49,91.21,16.49s62.92-5.5,90.31-16.49c14.32-5.76,27.64-12.73,39.94-20.98l57.2,54.13-172.54,99.62-292.47-168.86v-337.72l292.47-168.86,292.47,168.86Z"/>
    </g>
  </g>
</svg>