<?xml version="1.0" encoding="UTF-8"?>
<svg id="_Слой_2" data-name="Слой 2" xmlns="http://www.w3.org/2000/svg" xmlns:xlink="http://www.w3.org/1999/xlink" viewBox="0 0 758.19 875.48">
  <defs>
    <style>
      .cls-1 {
        fill: url(#_Безымянный_градиент_7);
      }

      .cls-2 {
        fill: url(#_Безымянный_градиент_7-3);
      }

      .cls-3 {
        fill: url(#_Безымянный_градиент_7-2);
      }
    </style>
    <linearGradient id="_Безымянный_градиент_7" data-name="Безымянный градиент 7" x1="-44.92" y1="679.04" x2="791.33" y2="203.15" gradientUnits="userSpaceOnUse">
      <stop offset="0" stop-color="#996526"/>
      <stop offset=".49" stop-color="#fce78e"/>
      <stop offset="1" stop-color="#a97724"/>
    </linearGradient>
    <linearGradient id="_Безымянный_градиент_7-2" data-name="Безымянный градиент 7" x1="245.62" y1="509.45" x2="485.9" y2="372.71" xlink:href="#_Безымянный_градиент_7"/>
    <linearGradient id="_Безымянный_градиент_7-3" data-name="Безымянный градиент 7" x1="51.97" y1="623.9" x2="697.13" y2="256.75" xlink:href="#_Безымянный_градиент_7"/>
  </defs>
  <g id="_Слой_1-2" data-name="Слой 1">
    <g>
      <path class="cls-1" d="M750.86,214.63L386.43,4.23l-7.33-4.23-7.33,4.23L7.33,214.63l-7.33,4.24v437.74l7.33,4.24,364.44,210.4,7.33,4.23,7.33-4.23,364.44-210.4,7.33-4.24V218.87l-7.33-4.24ZM709.4,628.44l-6.38,3.69-317.54,183.33-6.39,3.69-6.39-3.69L55.17,632.13l-6.38-3.69V247.04l6.38-3.69L372.71,60.02l6.39-3.69,6.39,3.69,317.54,183.33,6.38,3.69v381.41Z"/>
      <path class="cls-3" d="M435,465.94h-105.02l97.49,92.35c-16.39,7.65-35.1,11.47-56.08,11.47-23.62,0-45.11-5.49-64.52-16.5-19.41-11-34.8-26.5-46.21-46.51-11.39-20.01-17.1-43.6-17.1-70.82,0-24.79,5.1-46.71,15.29-65.72,10.22-18.99,24.31-33.9,42.32-44.7,18-10.8,39-16.21,63-16.21,26.81,0,49.71,6.3,68.72,18.91,18.99,12.61,33.6,29.3,43.81,50.1,10.2,20.82,15.29,43.81,15.29,69.01,0,22.32-4.25,42.2-12.79,59.68l-44.22-41.07Z"/>
      <path class="cls-2" d="M671.57,268.88v337.72l-52.55,30.34-71.58-66.53c9.79-13.73,17.91-28.73,24.39-45.04,10.8-27.19,16.21-57,16.21-89.42s-5.5-62.01-16.51-88.81c-11.01-26.81-26.6-50-46.8-69.62-20.21-19.6-43.93-34.71-71.12-45.31-27.21-10.58-57-15.9-89.42-15.9s-61.8,5.32-89.42,15.9c-27.61,10.6-51.82,25.72-72.61,45.31-20.82,19.62-37.01,42.81-48.6,69.62-11.62,26.81-17.41,56.4-17.41,88.81s5.59,62.23,16.79,89.42c11.2,27.22,27.1,50.82,47.71,70.82,20.59,20.01,44.72,35.51,72.33,46.52,27.6,10.98,58,16.49,91.21,16.49s62.92-5.5,90.31-16.49c14.32-5.76,27.64-12.73,39.94-20.98l57.2,54.13-172.54,99.62-292.47-168.86v-337.72L379.1,100.02l292.47,168.86Z"/>
    </g>
  </g>
</svg>